# 3ds Max Wavefront OBJ Exporter v0.97b - (c)2007 guruware
# File Created: 15.12.2014 10:07:08

mtllib Arrow.mtl

#
# object Cylinder006
#

v  0.0179 1.1129 -0.2381
v  0.0156 1.1215 -0.2381
v  0.0156 1.1215 0.1145
v  0.0179 1.1129 0.1145
v  0.0094 1.1277 -0.2381
v  0.0094 1.1277 0.1145
v  0.0008 1.1300 -0.2381
v  0.0008 1.1300 0.1145
v  -0.0078 1.1277 -0.2381
v  -0.0078 1.1277 0.1145
v  -0.0141 1.1215 -0.2381
v  -0.0141 1.1215 0.1145
v  -0.0164 1.1129 -0.2381
v  -0.0164 1.1129 0.1145
v  -0.0141 1.1043 -0.2381
v  -0.0141 1.1043 0.1145
v  -0.0078 1.0980 -0.2381
v  -0.0078 1.0980 0.1145
v  0.0008 1.0957 -0.2381
v  0.0008 1.0957 0.1145
v  0.0094 1.0980 -0.2381
v  0.0094 1.0980 0.1145
v  0.0156 1.1043 -0.2381
v  0.0156 1.1043 0.1145
v  0.0019 1.1135 0.2365
v  0.0020 1.1129 0.2365
v  0.0014 1.1140 0.2365
v  0.0008 1.1141 0.2365
v  0.0001 1.1140 0.2365
v  -0.0003 1.1135 0.2365
v  -0.0005 1.1129 0.2365
v  -0.0003 1.1122 0.2365
v  0.0001 1.1118 0.2365
v  0.0008 1.1116 0.2365
v  0.0014 1.1118 0.2365
v  0.0019 1.1122 0.2365
# 36 vertices

vn 1.0000 -0.0000 0.0000
vn 0.8660 0.5000 0.0000
vn 0.8642 0.4990 0.0641
vn 0.9979 -0.0000 0.0641
vn 0.5000 0.8660 0.0000
vn 0.4990 0.8642 0.0641
vn -0.0000 1.0000 0.0000
vn 0.0000 0.9979 0.0641
vn -0.5000 0.8660 0.0000
vn -0.4990 0.8642 0.0641
vn -0.8660 0.5000 0.0000
vn -0.8642 0.4990 0.0641
vn -1.0000 0.0000 -0.0000
vn -0.9979 0.0000 0.0641
vn -0.8660 -0.5000 -0.0000
vn -0.8642 -0.4990 0.0641
vn -0.5000 -0.8660 -0.0000
vn -0.4990 -0.8642 0.0641
vn -0.0000 -1.0000 -0.0000
vn -0.0000 -0.9979 0.0641
vn 0.5000 -0.8660 -0.0000
vn 0.4990 -0.8642 0.0641
vn 0.8660 -0.5000 -0.0000
vn 0.8642 -0.4990 0.0641
vn 0.8588 0.4958 0.1293
vn 0.9916 -0.0000 0.1293
vn 0.4958 0.8588 0.1293
vn -0.0000 0.9916 0.1293
vn -0.4958 0.8588 0.1293
vn -0.8588 0.4958 0.1293
vn -0.9916 -0.0000 0.1293
vn -0.8588 -0.4958 0.1293
vn -0.4958 -0.8588 0.1293
vn -0.0000 -0.9916 0.1293
vn 0.4958 -0.8588 0.1293
vn 0.8588 -0.4958 0.1293
vn 0.0000 0.0000 -1.0000
vn 0.0000 -0.0000 1.0000
# 38 vertex normals

vt 0.3750 0.0255 1.0000
vt 0.4167 0.0255 1.0000
vt 0.4167 0.7117 1.0000
vt 0.3750 0.7117 1.0000
vt 0.4583 0.0255 1.0000
vt 0.4583 0.7117 1.0000
vt 0.5000 0.0255 1.0000
vt 0.5000 0.7117 1.0000
vt 0.5417 0.0255 1.0000
vt 0.5417 0.7117 1.0000
vt 0.0417 0.0255 1.0000
vt 0.0833 0.0255 1.0000
vt 0.0833 0.7117 1.0000
vt 0.0417 0.7117 1.0000
vt 0.1250 0.0255 1.0000
vt 0.1250 0.7117 1.0000
vt 0.1667 0.0255 1.0000
vt 0.1667 0.7117 1.0000
vt 0.2083 0.0255 1.0000
vt 0.2083 0.7117 1.0000
vt 0.2500 0.0255 1.0000
vt 0.2500 0.7117 1.0000
vt 0.2917 0.0255 1.0000
vt 0.2917 0.7117 1.0000
vt 0.3333 0.0255 1.0000
vt 0.3333 0.7117 1.0000
vt 0.7093 0.8930 0.0000
vt 0.6812 0.9402 0.0000
vt 0.5134 0.8965 1.0000
vt 0.5155 0.8930 1.0000
vt 0.6046 0.9748 0.0000
vt 0.5077 0.8991 1.0000
vt 0.5000 0.9875 0.0000
vt 0.5000 0.9000 1.0000
vt 0.3954 0.9748 0.0000
vt 0.4923 0.8991 1.0000
vt 0.3188 0.9402 0.0000
vt 0.4866 0.8965 1.0000
vt 0.2907 0.8930 0.0000
vt 0.4845 0.8930 1.0000
vt 0.3188 0.8458 0.0000
vt 0.4866 0.8895 1.0000
vt 0.3954 0.8112 0.0000
vt 0.4923 0.8870 1.0000
vt 0.5000 0.7985 0.0000
vt 0.5000 0.8860 1.0000
vt 0.6046 0.8112 0.0000
vt 0.5077 0.8870 1.0000
vt 0.6812 0.8458 0.0000
vt 0.5134 0.8895 1.0000
vt 0.6119 0.9250 0.5000
vt 0.6299 0.8971 0.5000
vt 0.6119 0.8692 0.5000
vt 0.5629 0.8488 0.5000
vt 0.4959 0.8413 0.5000
vt 0.4289 0.8488 0.5000
vt 0.3798 0.8692 0.5000
vt 0.3619 0.8971 0.5000
vt 0.3798 0.9250 0.5000
vt 0.4289 0.9455 0.5000
vt 0.4959 0.9530 0.5000
vt 0.5629 0.9455 0.5000
# 62 texture coords

g Cylinder006
usemtl 08___Default
s 8
f 1/1/1 2/2/2 3/3/3 
f 3/3/3 4/4/4 1/1/1 
f 2/2/2 5/5/5 6/6/6 
f 6/6/6 3/3/3 2/2/2 
f 5/5/5 7/7/7 8/8/8 
f 8/8/8 6/6/6 5/5/5 
f 7/7/7 9/9/9 10/10/10 
f 10/10/10 8/8/8 7/7/7 
f 9/11/9 11/12/11 12/13/12 
f 12/13/12 10/14/10 9/11/9 
f 11/12/11 13/15/13 14/16/14 
f 14/16/14 12/13/12 11/12/11 
f 13/15/13 15/17/15 16/18/16 
f 16/18/16 14/16/14 13/15/13 
f 15/17/15 17/19/17 18/20/18 
f 18/20/18 16/18/16 15/17/15 
f 17/19/17 19/21/19 20/22/20 
f 20/22/20 18/20/18 17/19/17 
f 19/21/19 21/23/21 22/24/22 
f 22/24/22 20/22/20 19/21/19 
f 21/23/21 23/25/23 24/26/24 
f 24/26/24 22/24/22 21/23/21 
f 23/25/23 1/1/1 4/4/4 
f 4/4/4 24/26/24 23/25/23 
f 4/27/4 3/28/3 25/29/25 
f 25/29/25 26/30/26 4/27/4 
f 3/28/3 6/31/6 27/32/27 
f 27/32/27 25/29/25 3/28/3 
f 6/31/6 8/33/8 28/34/28 
f 28/34/28 27/32/27 6/31/6 
f 8/33/8 10/35/10 29/36/29 
f 29/36/29 28/34/28 8/33/8 
f 10/35/10 12/37/12 30/38/30 
f 30/38/30 29/36/29 10/35/10 
f 12/37/12 14/39/14 31/40/31 
f 31/40/31 30/38/30 12/37/12 
f 14/39/14 16/41/16 32/42/32 
f 32/42/32 31/40/31 14/39/14 
f 16/41/16 18/43/18 33/44/33 
f 33/44/33 32/42/32 16/41/16 
f 18/43/18 20/45/20 34/46/34 
f 34/46/34 33/44/33 18/43/18 
f 20/45/20 22/47/22 35/48/35 
f 35/48/35 34/46/34 20/45/20 
f 22/47/22 24/49/24 36/50/36 
f 36/50/36 35/48/35 22/47/22 
f 24/49/24 4/27/4 26/30/26 
f 26/30/26 36/50/36 24/49/24 
s 1
f 21/51/37 19/52/37 17/53/37 
f 17/53/37 15/54/37 13/55/37 
f 13/55/37 11/56/37 9/57/37 
f 17/53/37 13/55/37 9/57/37 
f 9/57/37 7/58/37 5/59/37 
f 5/59/37 2/60/37 1/61/37 
f 9/57/37 5/59/37 1/61/37 
f 17/53/37 9/57/37 1/61/37 
f 21/51/37 17/53/37 1/61/37 
f 23/62/37 21/51/37 1/61/37 
f 25/29/38 27/32/38 28/34/38 
f 28/34/38 29/36/38 30/38/38 
f 30/38/38 31/40/38 32/42/38 
f 28/34/38 30/38/38 32/42/38 
f 32/42/38 33/44/38 34/46/38 
f 34/46/38 35/48/38 36/50/38 
f 32/42/38 34/46/38 36/50/38 
f 28/34/38 32/42/38 36/50/38 
f 25/29/38 28/34/38 36/50/38 
f 26/30/38 25/29/38 36/50/38 
# 68 faces

