# 3ds Max Wavefront OBJ Exporter v0.97b - (c)2007 guruware
# File Created: 12.12.2014 19:58:00

mtllib Doorway1_Extension.mtl

#
# object Object001
#

v  0.6655 2.0871 0.3746
v  0.6478 1.8308 0.3746
v  0.6746 1.8258 0.3790
v  0.6923 2.0922 0.3790
v  0.3157 2.0855 0.3571
v  0.3337 1.8325 0.3571
v  0.3656 1.8258 0.3663
v  0.3476 2.0922 0.3663
v  0.9973 1.8170 -0.3633
v  0.9789 1.8103 -0.3774
v  0.9789 2.0935 -0.3774
v  0.9973 2.0867 -0.3633
v  0.6475 2.0922 -0.3672
v  0.6655 2.0871 -0.3628
v  0.6478 1.8308 -0.3628
v  0.6298 1.8258 -0.3672
v  0.2902 2.0922 -0.3672
v  0.3157 2.0855 -0.3581
v  0.3337 1.8325 -0.3581
v  0.3082 1.8258 -0.3672
v  0.2902 2.0922 0.3737
v  0.0284 2.0922 0.3737
v  0.0284 1.8258 0.3737
v  0.3082 1.8258 0.3737
v  0.0284 1.8258 -0.3728
v  0.0284 2.0922 -0.3728
v  0.6298 1.8258 0.3790
v  0.6475 2.0922 0.3790
v  0.3476 2.0922 -0.3774
v  0.3656 1.8258 -0.3774
v  0.9789 1.8103 0.3870
v  0.9789 2.0935 0.3870
v  0.6923 2.0922 -0.3672
v  0.6746 1.8258 -0.3672
v  0.9973 2.0867 0.3729
v  0.9973 1.8170 0.3729
v  0.0040 2.0832 -0.3535
v  0.0040 2.0832 0.3559
v  0.0040 1.8383 0.3559
v  0.0040 1.9245 -0.3619
v  0.0040 1.8348 -0.3619
v  0.0040 1.8348 -0.3444
v  0.0284 1.8258 -0.3206
v  0.0040 1.8383 -0.3206
# 44 vertices

vn 0.0254 -0.0025 0.9997
vn 0.0484 -0.0040 0.9988
vn -0.0802 0.0072 0.9968
vn -0.0760 0.0061 0.9971
vn -0.2367 -0.0209 0.9714
vn -0.2426 -0.0225 0.9699
vn -0.1313 -0.0120 0.9913
vn -0.1389 -0.0109 0.9902
vn 0.5508 0.0000 -0.8347
vn 0.1162 -0.0093 -0.9932
vn 0.0252 -0.0023 -0.9997
vn 0.0483 -0.0042 -0.9988
vn 0.1103 -0.0095 -0.9939
vn 0.1423 0.0127 -0.9897
vn 0.2995 0.0277 -0.9537
vn 0.2904 0.0257 -0.9565
vn 0.1540 0.0136 -0.9880
vn 0.2261 0.0208 0.9739
vn -0.2539 -0.0000 0.9672
vn -0.2445 -0.0000 0.9697
vn 0.2477 0.0218 0.9686
vn -0.1559 0.0004 -0.9878
vn -0.2508 0.0201 -0.9678
vn 0.4825 0.0427 0.8748
vn 0.4949 0.0458 0.8678
vn 0.0701 -0.0076 0.9975
vn 0.0821 -0.0074 0.9966
vn -0.2227 -0.0206 -0.9747
vn -0.1988 -0.0187 -0.9799
vn -0.4647 -0.0411 -0.8845
vn -0.4552 -0.0422 -0.8894
vn -0.0231 0.0008 0.9997
vn -0.0237 0.0000 0.9997
vn -0.0801 0.0071 -0.9968
vn -0.0839 0.0067 -0.9965
vn -0.0294 0.0010 -0.9996
vn -0.0287 0.0000 -0.9996
vn 0.5508 0.0000 0.8346
vn 1.0000 -0.0000 -0.0000
vn 1.0000 0.0000 -0.0000
vn 0.0379 0.9993 0.0000
vn 0.0379 0.9993 -0.0000
vn -0.0703 0.9975 0.0000
vn -0.0701 0.9975 0.0000
vn 0.0112 0.9999 0.0000
vn 0.0319 0.9995 0.0000
vn -0.0724 0.9974 0.0000
vn -0.0664 0.9978 0.0000
vn 0.0886 -0.9961 -0.0000
vn 0.0112 -0.9999 -0.0000
vn 0.0319 -0.9995 0.0000
vn 0.0805 -0.9968 -0.0000
vn 0.0983 -0.9952 -0.0000
vn 0.0379 -0.9993 -0.0000
vn 0.1008 -0.9949 -0.0000
vn 0.0845 -0.9964 -0.0000
vn 0.2714 -0.9625 -0.0000
vn 0.0842 -0.9964 -0.0000
vn 0.0886 0.9961 -0.0000
vn -0.1065 0.9943 0.0000
vn -0.1082 0.9941 0.0000
vn 0.0805 0.9968 -0.0000
vn 0.0984 0.9951 -0.0000
vn 0.1007 0.9949 -0.0000
vn -0.0665 -0.9978 0.0000
vn -0.0723 -0.9974 0.0000
vn 0.1058 0.9944 -0.0000
vn 0.1061 0.9944 -0.0000
vn -0.0888 -0.9960 0.0000
vn -0.0889 -0.9960 0.0000
vn 0.2714 0.9625 -0.0000
vn -0.2709 0.9626 0.0000
vn -0.5309 -0.0000 0.8475
vn -0.3738 0.0035 -0.9275
vn -0.5717 0.0489 -0.8190
vn -0.3576 -0.0000 -0.9339
vn -0.3002 -0.9532 0.0359
vn -0.2727 -0.9621 0.0000
vn -0.1210 -0.9927 0.0000
vn -0.1726 -0.9849 0.0135
vn -0.3658 -0.9287 0.0602
vn -0.3665 -0.9304 0.0000
vn -0.1487 -0.9889 0.0000
vn -1.0000 -0.0000 0.0000
# 84 vertex normals

vt 0.9819 0.1667 1.0000
vt 0.8181 0.1667 1.0000
vt 0.8181 0.1532 1.0000
vt 0.9819 0.1532 1.0000
vt 0.9819 0.3333 1.0000
vt 0.8181 0.3333 1.0000
vt 0.8181 0.3173 1.0000
vt 0.9819 0.3173 1.0000
vt 0.8181 0.0000 -0.0000
vt 0.8181 0.0092 -0.0000
vt 0.9819 0.0092 -0.0000
vt 0.9741 -0.0000 -0.0000
vt 0.9819 0.1757 -0.0000
vt 0.9819 0.1667 -0.0000
vt 0.8181 0.1667 -0.0000
vt 0.8181 0.1757 -0.0000
vt 0.5819 0.3461 -0.0000
vt 0.5819 0.3333 -0.0000
vt 0.4181 0.3333 -0.0000
vt 0.4181 0.3461 -0.0000
vt 0.5819 0.3461 1.0000
vt 0.5819 0.4867 1.0000
vt 0.4181 0.4964 1.0000
vt 0.4181 0.3461 1.0000
vt 0.4181 0.4867 -0.0000
vt 0.5819 0.4867 -0.0000
vt 0.4181 0.3333 1.0000
vt 0.5819 0.3333 1.0000
vt 0.8181 0.1757 1.0000
vt 0.9819 0.1757 1.0000
vt 0.9819 0.3173 -0.0000
vt 0.8181 0.3173 -0.0000
vt 0.8181 0.3333 -0.0000
vt 0.9819 0.3333 -0.0000
vt 0.8181 0.0092 1.0000
vt 0.9819 0.0092 1.0000
vt 0.9819 0.1532 -0.0000
vt 0.8181 0.1532 -0.0000
vt 0.9741 0.0000 1.0000
vt 0.8181 0.0000 1.0000
vt 0.7422 0.5365 0.5000
vt 0.7422 0.6374 0.5000
vt 0.3193 0.6374 0.5000
vt 0.3193 0.5365 0.5000
vt 0.0084 0.1667 0.0000
vt 0.4227 0.1667 0.0000
vt 0.4230 0.1532 0.0000
vt 0.0038 0.1532 0.0000
vt 0.0131 0.3333 0.0000
vt 0.4229 0.3333 0.0000
vt 0.4235 0.3173 0.0000
vt -0.0026 0.3173 0.0000
vt 0.0032 0.3461 1.0000
vt 0.0131 0.3333 1.0000
vt 0.4229 0.3333 1.0000
vt 0.4278 0.3461 1.0000
vt 0.0038 0.1757 1.0000
vt 0.0084 0.1667 1.0000
vt 0.4227 0.1667 1.0000
vt 0.4230 0.1757 1.0000
vt 0.0045 0.0092 1.0000
vt 0.0195 -0.0000 1.0000
vt 0.4218 -0.0000 1.0000
vt 0.4222 0.0092 1.0000
vt 0.0032 0.3461 0.0000
vt 0.0000 0.4867 0.0000
vt 0.4278 0.4867 0.0000
vt 0.4278 0.3461 0.0000
vt -0.0068 0.3461 0.0000
vt 0.4286 0.3461 0.0000
vt 0.4235 0.3333 0.0000
vt 0.0032 0.3333 0.0000
vt 0.0038 0.1757 0.0000
vt 0.0052 0.3173 0.0000
vt 0.4230 0.3173 0.0000
vt 0.4230 0.1757 0.0000
vt 0.0032 0.3333 1.0000
vt -0.0128 0.3173 1.0000
vt 0.4242 0.3173 1.0000
vt 0.4235 0.3333 1.0000
vt 0.4158 0.3173 1.0000
vt -0.0020 0.3173 1.0000
vt -0.0010 0.1757 0.0000
vt 0.4233 0.1757 0.0000
vt 0.4230 0.1667 0.0000
vt 0.0037 0.1667 0.0000
vt 0.0144 0.1532 0.0000
vt 0.4222 0.1532 0.0000
vt 0.4222 0.0092 0.0000
vt 0.0045 0.0092 0.0000
vt 0.0037 0.1667 1.0000
vt -0.0010 0.1532 1.0000
vt 0.4233 0.1532 1.0000
vt 0.4230 0.1667 1.0000
vt 0.0038 0.1532 1.0000
vt -0.0064 0.0092 1.0000
vt 0.4230 0.0092 1.0000
vt 0.4230 0.1532 1.0000
vt -0.0112 0.0092 0.0000
vt 0.4233 0.0092 0.0000
vt 0.4226 -0.0000 0.0000
vt 0.0041 -0.0000 0.0000
vt 0.0036 0.4990 0.0000
vt 0.4101 0.4990 0.0000
vt 0.5819 0.4990 1.0000
vt 0.4313 0.4990 1.0000
vt 0.4181 0.4867 1.0000
vt 0.4733 0.4955 -0.0000
vt 0.5819 0.4990 -0.0000
vt 0.4181 0.4955 -0.0000
vt 0.0122 0.4955 1.0000
vt 0.0032 0.4955 1.0000
vt 0.0032 0.4867 1.0000
vt 0.0300 0.4867 1.0000
vt 0.0225 0.4990 1.0000
vt 0.4231 0.4990 1.0000
vt 0.0355 0.4990 1.0000
vt 0.4278 0.4867 1.0000
vt 0.0000 0.4867 1.0000
vt 1.1528 0.4336 0.5000
vt 1.1528 0.4015 0.5000
vt 1.1429 0.4015 0.5000
vt 1.1295 0.4028 0.5000
vt 1.1481 0.4904 0.5000
vt 0.7482 0.4028 0.5000
vt 0.7482 0.4904 0.5000
# 126 texture coords

g Object001
usemtl Wall1
s 1
f 1/1/1 2/2/2 3/3/3 
f 3/3/3 4/4/4 1/1/1 
f 5/5/5 6/6/6 7/7/7 
f 7/7/7 8/8/8 5/5/5 
f 9/9/9 10/10/9 11/11/9 
f 11/11/9 12/12/9 9/9/9 
s 2
f 13/13/10 14/14/11 15/15/12 
f 15/15/12 16/16/13 13/13/10 
s 1
f 17/17/14 18/18/15 19/19/16 
f 19/19/16 20/20/17 17/17/14 
s 2
f 21/21/18 22/22/19 23/23/20 
f 23/23/20 24/24/21 21/21/18 
s 1
f 17/17/14 20/20/17 25/25/22 
f 25/25/22 26/26/23 17/17/14 
s 2
f 21/21/18 24/24/21 6/27/24 
f 6/27/24 5/28/25 21/21/18 
s 1
f 8/8/8 7/7/7 27/29/26 
f 27/29/26 28/30/27 8/8/8 
s 2
f 29/31/28 30/32/29 19/33/30 
f 19/33/30 18/34/31 29/31/28 
f 13/13/10 16/16/13 30/32/29 
f 30/32/29 29/31/28 13/13/10 
s 1
f 28/30/27 27/29/26 2/2/2 
f 2/2/2 1/1/1 28/30/27 
f 4/4/4 3/3/3 31/35/32 
f 31/35/32 32/36/33 4/4/4 
s 2
f 33/37/34 34/38/35 15/15/12 
f 15/15/12 14/14/11 33/37/34 
f 11/11/36 10/10/37 34/38/35 
f 34/38/35 33/37/34 11/11/36 
s 8
f 35/39/38 32/36/38 31/35/38 
f 31/35/38 36/40/38 35/39/38 
s 2
f 9/41/39 12/42/39 35/43/40 
f 35/43/40 36/44/40 9/41/39 
s 4
f 14/45/41 1/46/42 4/47/43 
f 4/47/43 33/48/44 14/45/41 
f 18/49/45 5/50/46 8/51/47 
f 8/51/47 29/52/48 18/49/45 
f 20/53/49 19/54/50 6/55/51 
f 6/55/51 24/56/52 20/53/49 
f 16/57/53 15/58/54 2/59/54 
f 2/59/54 27/60/55 16/57/53 
f 10/61/56 9/62/57 36/63/57 
f 36/63/57 31/64/58 10/61/56 
f 17/65/59 26/66/60 22/67/61 
f 22/67/61 21/68/62 17/65/59 
f 17/69/59 21/70/62 5/71/46 
f 5/71/46 18/72/45 17/69/59 
f 13/73/63 29/74/48 8/75/47 
f 8/75/47 28/76/64 13/73/63 
f 19/77/50 30/78/65 7/79/66 
f 7/79/66 6/80/51 19/77/50 
f 16/57/53 27/60/55 7/81/66 
f 7/81/66 30/82/65 16/57/53 
f 13/83/63 28/84/64 1/85/42 
f 1/85/42 14/86/41 13/83/63 
f 33/87/44 4/88/43 32/89/67 
f 32/89/67 11/90/68 33/87/44 
f 15/91/54 34/92/69 3/93/70 
f 3/93/70 2/94/54 15/91/54 
f 34/95/69 10/96/56 31/97/58 
f 31/97/58 3/98/70 34/95/69 
f 11/99/68 32/100/67 35/101/71 
f 35/101/71 12/102/71 11/99/68 
f 37/103/72 38/104/72 22/67/61 
f 22/67/61 26/66/60 37/103/72 
s 2
f 22/22/19 38/105/73 39/106/73 
f 39/106/73 23/107/20 22/22/19 
s 1
f 40/108/74 37/109/75 26/26/23 
f 40/108/74 26/26/23 25/25/22 
f 40/108/74 25/25/22 41/110/76 
s 4
f 42/111/77 41/112/78 25/113/79 
f 42/111/77 25/113/79 43/114/80 
f 44/115/81 42/111/77 43/114/80 
f 39/116/82 44/117/81 43/114/80 
f 43/114/80 23/118/83 39/116/82 
f 24/56/52 23/118/83 43/114/80 
f 20/53/49 24/56/52 43/114/80 
f 20/53/49 43/114/80 25/119/79 
s 8
f 40/120/84 41/121/84 42/122/84 
f 40/120/84 42/122/84 44/123/84 
f 37/124/84 40/120/84 44/123/84 
f 37/124/84 44/123/84 39/125/84 
f 37/124/84 39/125/84 38/126/84 
# 84 faces

