# 3ds Max Wavefront OBJ Exporter v0.97b - (c)2007 guruware
# File Created: 12.12.2014 21:20:04

mtllib Door1.mtl

#
# object Box003
#

v  0.0051 0.1701 -0.0445
v  0.7653 0.1701 -0.0445
v  0.7653 0.0365 -0.0445
v  0.0051 0.0365 -0.0445
v  0.7653 0.0365 0.0440
v  0.7653 0.1701 0.0440
v  0.0051 0.1701 0.0440
v  0.0051 0.0365 0.0440
v  -0.0001 0.0311 -0.0295
v  0.7705 0.0311 -0.0295
v  0.7705 0.0311 0.0291
v  -0.0001 0.0311 0.0291
v  0.7705 0.1754 -0.0295
v  0.7705 0.1754 0.0291
v  0.7705 1.8086 -0.0295
v  -0.0001 1.8086 -0.0295
v  -0.0001 1.8086 0.0291
v  0.7705 1.8086 0.0291
v  -0.0001 1.6764 -0.0295
v  -0.0001 1.6759 -0.0295
v  -0.0001 1.6759 0.0291
v  -0.0001 1.6764 0.0291
v  0.7705 1.6764 -0.0295
v  -0.0001 0.1754 -0.0295
v  0.7705 1.6764 0.0291
v  -0.0001 0.1754 0.0291
v  0.0051 1.8032 -0.0445
v  0.7653 1.8032 -0.0445
v  0.7653 1.6817 -0.0445
v  0.0051 1.6817 -0.0445
v  0.7653 1.8032 0.0440
v  0.0051 1.8032 0.0440
v  0.0051 1.6817 0.0440
v  0.7653 1.6817 0.0440
# 34 vertices

vn 0.0000 0.0000 -1.0000
vn 0.0000 -0.0000 1.0000
vn 0.0000 -1.0000 -0.0000
vn 1.0000 0.0000 -0.0000
vn 0.0000 1.0000 0.0000
vn -1.0000 -0.0000 0.0000
vn -1.0000 0.0000 0.0000
vn -1.0000 -0.0000 -0.0000
vn -0.0000 -0.0000 1.0000
vn 1.0000 -0.0000 -0.0000
vn -0.9780 0.0000 -0.2085
vn 0.0000 0.9780 -0.2085
vn 0.9780 0.0000 -0.2085
vn 0.0000 -0.9780 -0.2085
vn 0.0000 -0.9780 0.2085
vn 0.9780 -0.0000 0.2085
vn -0.0000 0.9780 0.2085
vn -0.9780 -0.0000 0.2085
vn 0.9780 -0.0000 -0.2085
vn 0.0000 0.9780 0.2085
vn -0.0000 -0.9780 0.2085
vn -1.0000 0.0000 -0.0000
# 22 vertex normals

vt 1.0000 0.0812 0.0000
vt 0.0000 0.0812 0.0000
vt 0.0000 0.0000 0.0000
vt 1.0000 0.0000 0.0000
vt 1.0000 1.0000 0.0000
vt 0.0000 1.0000 0.0000
vt 0.5094 0.0812 0.5000
vt 0.5655 0.0812 0.5000
vt 0.5655 0.0000 0.5000
vt 0.5094 0.0000 0.5000
vt 0.2726 0.9256 4.5000
vt 0.2726 0.9254 4.5000
vt 0.3289 0.9254 4.5000
vt 0.3289 0.9256 4.5000
vt 0.2726 1.0000 4.5000
vt 0.3289 1.0000 4.5000
vt 1.0000 0.9256 0.0000
vt 0.0000 0.9256 0.0000
vt 1.0000 0.9254 0.0000
vt 0.0000 0.9254 0.0000
vt 0.3614 0.9256 -3.5000
vt 0.4864 0.9256 -3.5000
vt 0.4864 0.0812 -3.5000
vt 0.3614 0.0812 -3.5000
vt 0.5094 1.0000 0.5000
vt 0.5655 1.0000 0.5000
vt 0.5655 0.9256 0.5000
vt 0.5094 0.9256 0.6250
vt 0.2726 0.0812 4.5000
vt 0.2726 0.0000 4.5000
vt 0.3289 0.0000 4.5000
vt 0.3289 0.0812 4.5000
vt 0.3614 0.0812 4.5000
vt 0.4864 0.0812 4.5000
vt 0.4864 0.9254 4.5000
vt 0.3614 0.9254 4.5000
# 36 texture coords

g Box003
usemtl Door1
s 2
f 1/1/1 2/2/1 3/3/1 
f 3/3/1 4/4/1 1/1/1 
s 4
f 5/4/2 6/1/2 7/2/2 
f 7/2/2 8/3/2 5/4/2 
s 8
f 9/3/3 10/4/3 11/5/3 
f 11/5/3 12/6/3 9/3/3 
s 16
f 13/7/4 14/8/4 11/9/4 
f 11/9/4 10/10/4 13/7/4 
s 32
f 15/3/5 16/4/5 17/5/5 
f 17/5/5 18/6/5 15/3/5 
s 64
f 19/11/6 20/12/6 21/13/7 
f 19/11/6 21/13/7 22/14/6 
f 16/15/6 19/11/6 22/14/6 
f 16/15/6 22/14/6 17/16/8 
s 2
f 19/17/1 23/18/1 13/2/1 
f 20/19/1 19/17/1 13/2/1 
f 24/1/1 20/19/1 13/2/1 
s 4
f 25/17/9 22/18/9 21/20/9 
f 25/17/9 21/20/9 26/2/9 
f 14/1/2 25/17/9 26/2/9 
s 16
f 23/21/10 25/22/10 14/23/4 
f 14/23/4 13/24/4 23/21/10 
s 2
f 27/5/1 28/6/1 29/18/1 
f 29/18/1 30/17/1 27/5/1 
s 4
f 31/5/2 32/6/2 33/18/2 
f 33/18/2 34/17/2 31/5/2 
s 16
f 15/25/10 18/26/4 25/27/10 
f 25/27/10 23/28/10 15/25/10 
s off
f 9/4/11 24/1/11 1/1/11 
f 1/1/11 4/4/11 9/4/11 
f 24/1/12 13/2/12 2/2/12 
f 2/2/12 1/1/12 24/1/12 
f 13/2/13 10/3/13 3/3/13 
f 3/3/13 2/2/13 13/2/13 
f 10/3/14 9/4/14 4/4/14 
f 4/4/14 3/3/14 10/3/14 
f 12/3/15 11/4/15 5/4/15 
f 5/4/15 8/3/15 12/3/15 
f 11/4/16 14/1/16 6/1/16 
f 6/1/16 5/4/16 11/4/16 
f 14/1/17 26/2/17 7/2/17 
f 7/2/17 6/1/17 14/1/17 
f 26/2/18 12/3/18 8/3/18 
f 8/3/18 7/2/18 26/2/18 
f 19/17/11 16/5/11 27/5/11 
f 27/5/11 30/17/11 19/17/11 
f 16/5/12 15/6/12 28/6/12 
f 28/6/12 27/5/12 16/5/12 
f 15/6/19 23/18/19 29/18/19 
f 29/18/19 28/6/19 15/6/19 
f 23/18/14 19/17/14 30/17/14 
f 30/17/14 29/18/14 23/18/14 
f 25/17/16 18/5/16 31/5/16 
f 31/5/16 34/17/16 25/17/16 
f 18/5/20 17/6/20 32/6/20 
f 32/6/20 31/5/20 18/5/20 
f 17/6/18 22/18/18 33/18/18 
f 33/18/18 32/6/18 17/6/18 
f 22/18/21 25/17/21 34/17/21 
f 34/17/15 33/18/15 22/18/15 
s 64
f 24/29/7 9/30/22 12/31/22 
f 12/31/22 26/32/7 24/29/7 
f 24/33/7 26/34/7 21/35/7 
f 21/35/7 20/36/6 24/33/7 
# 64 faces

