# 3ds Max Wavefront OBJ Exporter v0.97b - (c)2007 guruware
# File Created: 15.12.2014 12:28:08

mtllib SpikeTrap.mtl

#
# object ChamferBox001
#

v  -0.4865 0.0934 0.1136
v  -0.4865 0.0894 0.1040
v  -0.4933 0.0894 0.1068
v  -0.4961 0.0894 0.1136
v  -0.4961 0.0894 0.3789
v  -0.4865 0.0934 0.3789
v  -0.4933 0.0894 0.3857
v  -0.4865 0.0894 0.3885
v  0.4895 0.0894 0.3885
v  0.4895 0.0934 0.3789
v  0.0015 0.0934 0.3789
v  0.4963 0.0894 0.3857
v  0.4991 0.0894 0.3789
v  0.4991 0.0894 0.1136
v  0.4895 0.0934 0.1136
v  0.4963 0.0894 0.1068
v  0.4895 0.0894 0.1040
v  0.0015 0.0934 0.1136
v  -0.4865 0.0798 0.1000
v  -0.4961 0.0798 0.1040
v  -0.5001 0.0798 0.1136
v  -0.5001 0.0798 0.3789
v  -0.4961 0.0798 0.3885
v  -0.4865 0.0798 0.3925
v  0.4895 0.0798 0.3925
v  0.4991 0.0798 0.3885
v  0.5031 0.0798 0.3789
v  0.5031 0.0798 0.1136
v  0.4991 0.0798 0.1040
v  0.4895 0.0798 0.1000
v  -0.4865 0.0186 0.1000
v  -0.4961 0.0186 0.1040
v  -0.5001 0.0186 0.1136
v  -0.5001 0.0186 0.3789
v  -0.4961 0.0186 0.3885
v  -0.4865 0.0186 0.3925
v  0.4895 0.0186 0.3925
v  0.4991 0.0186 0.3885
v  0.5031 0.0186 0.3789
v  0.5031 0.0186 0.1136
v  0.4991 0.0186 0.1040
v  0.4895 0.0186 0.1000
v  -0.4865 0.0090 0.1040
v  -0.4933 0.0090 0.1068
v  -0.4961 0.0090 0.1136
v  -0.4961 0.0090 0.3789
v  -0.4933 0.0090 0.3857
v  -0.4865 0.0090 0.3885
v  0.4895 0.0090 0.3885
v  0.4963 0.0090 0.3857
v  0.4991 0.0090 0.3789
v  0.4991 0.0090 0.1136
v  0.4963 0.0090 0.1068
v  0.4895 0.0090 0.1040
v  -0.4865 0.0050 0.1136
v  -0.4865 0.0050 0.3789
v  0.4895 0.0050 0.3789
v  0.4895 0.0050 0.1136
v  -0.3121 0.0934 0.2702
v  -0.3067 0.0934 0.2502
v  -0.3067 0.0365 0.2502
v  -0.3121 0.0365 0.2702
v  -0.3121 0.0934 0.2302
v  -0.3121 0.0365 0.2302
v  -0.3267 0.0934 0.2156
v  -0.3267 0.0365 0.2156
v  -0.3467 0.0934 0.2102
v  -0.3467 0.0365 0.2102
v  -0.3667 0.0934 0.2156
v  -0.3667 0.0365 0.2156
v  -0.3814 0.0934 0.2302
v  -0.3814 0.0365 0.2302
v  -0.3867 0.0934 0.2502
v  -0.3867 0.0365 0.2502
v  -0.3814 0.0934 0.2702
v  -0.3814 0.0365 0.2702
v  -0.3667 0.0934 0.2848
v  -0.3667 0.0365 0.2848
v  -0.3467 0.0934 0.2902
v  -0.3467 0.0365 0.2902
v  -0.3267 0.0934 0.2848
v  -0.3267 0.0365 0.2848
v  -0.1384 0.0365 0.2702
v  -0.1384 0.0934 0.2702
v  -0.1330 0.0934 0.2502
v  -0.1330 0.0365 0.2502
v  -0.1384 0.0934 0.2302
v  -0.1384 0.0365 0.2302
v  -0.1530 0.0934 0.2156
v  -0.1530 0.0365 0.2156
v  -0.1730 0.0934 0.2102
v  -0.1730 0.0365 0.2102
v  -0.1930 0.0934 0.2156
v  -0.1930 0.0365 0.2156
v  -0.2077 0.0934 0.2302
v  -0.2077 0.0365 0.2302
v  -0.2130 0.0934 0.2502
v  -0.2130 0.0365 0.2502
v  -0.2077 0.0934 0.2702
v  -0.2077 0.0365 0.2702
v  -0.1930 0.0934 0.2848
v  -0.1930 0.0365 0.2848
v  -0.1730 0.0934 0.2902
v  -0.1730 0.0365 0.2902
v  -0.1530 0.0934 0.2848
v  -0.1530 0.0365 0.2848
v  0.0351 0.0365 0.2702
v  0.0351 0.0934 0.2702
v  0.0405 0.0934 0.2502
v  0.0405 0.0365 0.2502
v  0.0351 0.0934 0.2302
v  0.0351 0.0365 0.2302
v  0.0205 0.0934 0.2156
v  0.0205 0.0365 0.2156
v  0.0015 0.0934 0.2105
v  0.0005 0.0934 0.2102
v  0.0005 0.0365 0.2102
v  -0.0195 0.0934 0.2156
v  -0.0195 0.0365 0.2156
v  -0.0341 0.0934 0.2302
v  -0.0341 0.0365 0.2302
v  -0.0395 0.0934 0.2502
v  -0.0395 0.0365 0.2502
v  -0.0341 0.0934 0.2702
v  -0.0341 0.0365 0.2702
v  -0.0195 0.0934 0.2848
v  -0.0195 0.0365 0.2848
v  0.0005 0.0934 0.2902
v  0.0005 0.0365 0.2902
v  0.0015 0.0934 0.2899
v  0.0205 0.0934 0.2848
v  0.0205 0.0365 0.2848
v  0.2084 0.0365 0.2702
v  0.2084 0.0934 0.2702
v  0.2138 0.0934 0.2502
v  0.2138 0.0365 0.2502
v  0.2084 0.0934 0.2302
v  0.2084 0.0365 0.2302
v  0.1938 0.0934 0.2156
v  0.1938 0.0365 0.2156
v  0.1738 0.0934 0.2102
v  0.1738 0.0365 0.2102
v  0.1538 0.0934 0.2156
v  0.1538 0.0365 0.2156
v  0.1392 0.0934 0.2302
v  0.1392 0.0365 0.2302
v  0.1338 0.0934 0.2502
v  0.1338 0.0365 0.2502
v  0.1392 0.0934 0.2702
v  0.1392 0.0365 0.2702
v  0.1538 0.0934 0.2848
v  0.1538 0.0365 0.2848
v  0.1738 0.0934 0.2902
v  0.1738 0.0365 0.2902
v  0.1938 0.0934 0.2848
v  0.1938 0.0365 0.2848
v  0.3815 0.0934 0.2702
v  0.3869 0.0934 0.2502
v  0.3869 0.0365 0.2502
v  0.3815 0.0365 0.2702
v  0.3815 0.0934 0.2302
v  0.3815 0.0365 0.2302
v  0.3669 0.0934 0.2156
v  0.3669 0.0365 0.2156
v  0.3469 0.0934 0.2102
v  0.3469 0.0365 0.2102
v  0.3269 0.0934 0.2156
v  0.3269 0.0365 0.2156
v  0.3123 0.0934 0.2302
v  0.3123 0.0365 0.2302
v  0.3069 0.0934 0.2502
v  0.3069 0.0365 0.2502
v  0.3123 0.0934 0.2702
v  0.3123 0.0365 0.2702
v  0.3269 0.0934 0.2848
v  0.3269 0.0365 0.2848
v  0.3469 0.0934 0.2902
v  0.3469 0.0365 0.2902
v  0.3669 0.0934 0.2848
v  0.3669 0.0365 0.2848
v  0.0015 0.0934 0.1848
v  0.0015 0.0934 0.2100
# 182 vertices

vn -0.1657 0.9721 -0.1657
vn -0.1448 0.6794 -0.7194
vn -0.5294 0.6630 -0.5294
vn -0.7194 0.6794 -0.1448
vn -0.7194 0.6794 0.1448
vn -0.1657 0.9721 0.1657
vn -0.5294 0.6630 0.5294
vn -0.1448 0.6794 0.7194
vn 0.1448 0.6794 0.7194
vn 0.1657 0.9721 0.1657
vn 0.0000 0.9808 0.1951
vn 0.5294 0.6630 0.5294
vn 0.7194 0.6794 0.1448
vn 0.7194 0.6794 -0.1448
vn 0.1657 0.9721 -0.1657
vn 0.5294 0.6630 -0.5294
vn 0.1448 0.6794 -0.7194
vn 0.0000 0.9808 -0.1951
vn -0.1877 0.1877 -0.9641
vn -0.6947 0.1866 -0.6947
vn -0.9641 0.1877 -0.1877
vn -0.9641 0.1877 0.1877
vn -0.6947 0.1866 0.6947
vn -0.1877 0.1877 0.9641
vn 0.1877 0.1877 0.9641
vn 0.6947 0.1866 0.6947
vn 0.9641 0.1877 0.1877
vn 0.9641 0.1877 -0.1877
vn 0.6947 0.1866 -0.6947
vn 0.1877 0.1877 -0.9641
vn -0.1877 -0.1877 -0.9641
vn -0.6947 -0.1866 -0.6947
vn -0.9641 -0.1877 -0.1877
vn -0.9641 -0.1877 0.1877
vn -0.6947 -0.1866 0.6947
vn -0.1877 -0.1877 0.9641
vn 0.1877 -0.1877 0.9641
vn 0.6947 -0.1866 0.6947
vn 0.9641 -0.1877 0.1877
vn 0.9641 -0.1877 -0.1877
vn 0.6947 -0.1866 -0.6947
vn 0.1877 -0.1877 -0.9641
vn -0.1448 -0.6794 -0.7194
vn -0.5294 -0.6630 -0.5294
vn -0.7194 -0.6794 -0.1448
vn -0.7194 -0.6794 0.1448
vn -0.5294 -0.6630 0.5294
vn -0.1448 -0.6794 0.7194
vn 0.1448 -0.6794 0.7194
vn 0.5294 -0.6630 0.5294
vn 0.7194 -0.6794 0.1448
vn 0.7194 -0.6794 -0.1448
vn 0.5294 -0.6630 -0.5294
vn 0.1448 -0.6794 -0.7194
vn -0.1657 -0.9721 -0.1657
vn -0.1657 -0.9721 0.1657
vn 0.1657 -0.9721 0.1657
vn 0.1657 -0.9721 -0.1657
vn -0.8660 0.0000 -0.5000
vn -1.0000 0.0000 -0.0000
vn -0.8660 0.0000 0.5000
vn -0.5000 0.0000 0.8660
vn 0.0000 0.0000 1.0000
vn 0.5000 0.0000 0.8660
vn 0.8660 0.0000 0.5000
vn 1.0000 0.0000 0.0000
vn 0.8660 0.0000 -0.5000
vn 0.5000 0.0000 -0.8660
vn 0.0000 0.0000 -1.0000
vn -0.5000 0.0000 -0.8660
vn -0.0000 0.0000 1.0000
vn -0.5000 -0.0000 0.8660
vn -0.2588 -0.0000 0.9659
vn -0.0000 -0.0000 1.0000
vn 0.0000 -0.0000 -1.0000
vn -0.2588 -0.0000 -0.9659
vn -0.5000 -0.0000 -0.8660
vn 0.0000 1.0000 -0.0000
vn 0.0000 -1.0000 -0.0000
# 79 vertex normals

vt 0.0136 0.9535 1.0000
vt 0.0136 0.9864 0.9549
vt 0.0068 0.9767 0.9549
vt 0.0040 0.9535 0.9549
vt 0.0040 0.0465 0.9549
vt 0.0136 0.0465 1.0000
vt 0.0068 0.0233 0.9549
vt 0.0136 0.0136 0.9549
vt 0.9864 0.0136 0.9549
vt 0.9864 0.0465 1.0000
vt 0.5000 0.0465 1.0000
vt 0.9932 0.0233 0.9549
vt 0.9960 0.0465 0.9549
vt 0.9960 0.9535 0.9549
vt 0.9864 0.9535 1.0000
vt 0.9932 0.9767 0.9549
vt 0.9864 0.9864 0.9549
vt 0.5000 0.9535 1.0000
vt 0.0235 0.9518 -1.2664
vt 0.0141 0.9518 -1.2183
vt 0.0169 0.9838 -1.1842
vt 0.0235 0.9838 -1.2183
vt 0.3582 0.9302 6.6855
vt 0.3678 0.9302 6.7350
vt 0.3678 0.9584 6.6855
vt 0.3610 0.9584 6.6504
vt 0.6322 0.9302 6.7350
vt 0.6322 0.9584 6.6855
vt 0.6418 0.9302 6.6855
vt 0.6390 0.9584 6.6504
vt 0.0169 0.9838 2.1842
vt 0.0141 0.9518 2.2183
vt 0.0235 0.9518 2.2664
vt 0.0235 0.9838 2.2183
vt 0.9765 0.9518 2.2664
vt 0.9765 0.9838 2.2183
vt 0.9859 0.9518 2.2183
vt 0.9831 0.9838 2.1842
vt 0.6418 0.9302 -5.6855
vt 0.6322 0.9302 -5.7350
vt 0.6322 0.9584 -5.6855
vt 0.6390 0.9584 -5.6504
vt 0.3678 0.9302 -5.7350
vt 0.3678 0.9584 -5.6855
vt 0.3582 0.9302 -5.6855
vt 0.3610 0.9584 -5.6504
vt 0.9831 0.9838 -1.1842
vt 0.9859 0.9518 -1.2183
vt 0.9765 0.9518 -1.2664
vt 0.9765 0.9838 -1.2183
vt 0.0235 0.7484 -1.2664
vt 0.0141 0.7484 -1.2183
vt 0.3582 0.7504 6.6855
vt 0.3678 0.7504 6.7350
vt 0.6322 0.7504 6.7350
vt 0.6418 0.7504 6.6855
vt 0.0141 0.7484 2.2183
vt 0.0235 0.7484 2.2664
vt 0.9765 0.7484 2.2664
vt 0.9859 0.7484 2.2183
vt 0.6418 0.7504 -5.6855
vt 0.6322 0.7504 -5.7350
vt 0.3678 0.7504 -5.7350
vt 0.3582 0.7504 -5.6855
vt 0.9859 0.7484 -1.2183
vt 0.9765 0.7484 -1.2664
vt 0.0235 0.7165 -1.2183
vt 0.0169 0.7165 -1.1842
vt 0.3610 0.7222 6.6504
vt 0.3678 0.7222 6.6855
vt 0.6322 0.7222 6.6855
vt 0.6390 0.7222 6.6504
vt 0.0169 0.7165 2.1842
vt 0.0235 0.7165 2.2183
vt 0.9765 0.7165 2.2183
vt 0.9831 0.7165 2.1842
vt 0.6390 0.7222 -5.6504
vt 0.6322 0.7222 -5.6855
vt 0.3678 0.7222 -5.6855
vt 0.3610 0.7222 -5.6504
vt 0.9831 0.7165 -1.1842
vt 0.9765 0.7165 -1.2183
vt 0.0136 0.9864 0.0451
vt 0.0136 0.9535 0.0000
vt 0.0068 0.9767 0.0451
vt 0.0040 0.9535 0.0451
vt 0.0136 0.0465 0.0000
vt 0.0040 0.0465 0.0451
vt 0.0068 0.0233 0.0451
vt 0.0136 0.0136 0.0451
vt 0.9864 0.0465 0.0000
vt 0.9864 0.0136 0.0451
vt 0.9932 0.0233 0.0451
vt 0.9960 0.0465 0.0451
vt 0.9864 0.9535 0.0000
vt 0.9960 0.9535 0.0451
vt 0.9932 0.9767 0.0451
vt 0.9864 0.9864 0.0451
vt 0.1781 0.4263 1.0000
vt 0.1828 0.4947 1.0000
vt 0.1828 0.4947 0.3562
vt 0.1781 0.4263 0.3562
vt 0.1781 0.5631 1.0000
vt 0.1781 0.5631 0.3562
vt 0.1653 0.6132 1.0000
vt 0.1653 0.6132 0.3562
vt 0.1477 0.6315 1.0000
vt 0.1477 0.6315 0.3562
vt 0.1302 0.6132 1.0000
vt 0.1302 0.6132 0.3562
vt 0.1173 0.5631 1.0000
vt 0.1173 0.5631 0.3562
vt 0.1126 0.4947 1.0000
vt 0.1126 0.4947 0.3562
vt 0.1173 0.4263 1.0000
vt 0.1173 0.4263 0.3562
vt 0.1302 0.3763 1.0000
vt 0.1302 0.3763 0.3562
vt 0.1477 0.3579 1.0000
vt 0.1477 0.3579 0.3562
vt 0.1653 0.3763 1.0000
vt 0.1653 0.3763 0.3562
vt 0.3506 0.4366 0.3562
vt 0.3506 0.4366 1.0000
vt 0.3548 0.5050 1.0000
vt 0.3548 0.5050 0.3562
vt 0.3506 0.5734 1.0000
vt 0.3506 0.5734 0.3562
vt 0.3389 0.6235 1.0000
vt 0.3389 0.6235 0.3562
vt 0.3229 0.6418 1.0000
vt 0.3229 0.6418 0.3562
vt 0.3070 0.6235 1.0000
vt 0.3070 0.6235 0.3562
vt 0.2953 0.5734 1.0000
vt 0.2953 0.5734 0.3562
vt 0.2910 0.5050 1.0000
vt 0.2910 0.5050 0.3562
vt 0.2953 0.4366 1.0000
vt 0.2953 0.4366 0.3562
vt 0.3070 0.3866 1.0000
vt 0.3070 0.3866 0.3562
vt 0.3229 0.3682 1.0000
vt 0.3229 0.3682 0.3562
vt 0.3389 0.3866 1.0000
vt 0.3389 0.3866 0.3562
vt 0.5290 0.4284 0.3562
vt 0.5290 0.4284 1.0000
vt 0.5335 0.4968 1.0000
vt 0.5335 0.4968 0.3562
vt 0.5290 0.5652 1.0000
vt 0.5290 0.5652 0.3562
vt 0.5168 0.6152 1.0000
vt 0.5168 0.6152 0.3562
vt 0.5009 0.6326 1.0000
vt 0.5000 0.6336 1.0000
vt 0.5000 0.6336 0.3562
vt 0.4833 0.6152 1.0000
vt 0.4833 0.6152 0.3562
vt 0.4710 0.5652 1.0000
vt 0.4710 0.5652 0.3562
vt 0.4665 0.4968 1.0000
vt 0.4665 0.4968 0.3562
vt 0.4710 0.4284 1.0000
vt 0.4710 0.4284 0.3562
vt 0.4833 0.3783 1.0000
vt 0.4833 0.3783 0.3562
vt 0.5000 0.3600 1.0000
vt 0.5000 0.3600 0.3562
vt 0.5009 0.3609 1.0000
vt 0.5168 0.3783 1.0000
vt 0.5168 0.3783 0.3562
vt 0.7011 0.4387 0.3562
vt 0.7011 0.4387 1.0000
vt 0.7055 0.5071 1.0000
vt 0.7055 0.5071 0.3562
vt 0.7011 0.5755 1.0000
vt 0.7011 0.5755 0.3562
vt 0.6891 0.6255 1.0000
vt 0.6891 0.6255 0.3562
vt 0.6728 0.6439 1.0000
vt 0.6728 0.6439 0.3562
vt 0.6564 0.6255 1.0000
vt 0.6564 0.6255 0.3562
vt 0.6445 0.5755 1.0000
vt 0.6445 0.5755 0.3562
vt 0.6401 0.5071 1.0000
vt 0.6401 0.5071 0.3562
vt 0.6445 0.4387 1.0000
vt 0.6445 0.4387 0.3562
vt 0.6564 0.3886 1.0000
vt 0.6564 0.3886 0.3562
vt 0.6728 0.3703 1.0000
vt 0.6728 0.3703 0.3562
vt 0.6891 0.3886 1.0000
vt 0.6891 0.3886 0.3562
vt 0.8754 0.4304 1.0000
vt 0.8802 0.4988 1.0000
vt 0.8802 0.4988 0.3562
vt 0.8754 0.4304 0.3562
vt 0.8754 0.5672 1.0000
vt 0.8754 0.5672 0.3562
vt 0.8623 0.6173 1.0000
vt 0.8623 0.6173 0.3562
vt 0.8443 0.6356 1.0000
vt 0.8443 0.6356 0.3562
vt 0.8264 0.6173 1.0000
vt 0.8264 0.6173 0.3562
vt 0.8132 0.5672 1.0000
vt 0.8132 0.5672 0.3562
vt 0.8084 0.4988 1.0000
vt 0.8084 0.4988 0.3562
vt 0.8132 0.4304 1.0000
vt 0.8132 0.4304 0.3562
vt 0.8264 0.3804 1.0000
vt 0.8264 0.3804 0.3562
vt 0.8443 0.3621 1.0000
vt 0.8443 0.3621 0.3562
vt 0.8623 0.3804 1.0000
vt 0.8623 0.3804 0.3562
vt 0.4977 0.7239 1.0000
vt 0.5010 0.6342 1.0000
# 222 texture coords

g ChamferBox001
usemtl Spiketrap
s 1
f 1/1/1 2/2/2 3/3/3 
f 1/1/1 3/3/3 4/4/4 
f 1/1/1 4/4/4 5/5/5 
f 5/5/5 6/6/6 1/1/1 
f 6/6/6 5/5/5 7/7/7 
f 6/6/6 7/7/7 8/8/8 
f 8/8/8 9/9/9 10/10/10 
f 8/8/8 10/10/10 11/11/11 
f 8/8/8 11/11/11 6/6/6 
f 10/10/10 9/9/9 12/12/12 
f 10/10/10 12/12/12 13/13/13 
f 10/10/10 13/13/13 14/14/14 
f 14/14/14 15/15/15 10/10/10 
f 15/15/15 14/14/14 16/16/16 
f 15/15/15 16/16/16 17/17/17 
f 17/17/17 2/2/2 1/1/1 
f 17/17/17 1/1/1 18/18/18 
f 17/17/17 18/18/18 15/15/15 
f 19/19/19 20/20/20 3/21/3 
f 3/21/3 2/22/2 19/19/19 
f 20/23/20 21/24/21 4/25/4 
f 4/25/4 3/26/3 20/23/20 
f 4/25/4 21/24/21 22/27/22 
f 22/27/22 5/28/5 4/25/4 
f 5/28/5 22/27/22 23/29/23 
f 23/29/23 7/30/7 5/28/5 
f 7/31/7 23/32/23 24/33/24 
f 24/33/24 8/34/8 7/31/7 
f 24/33/24 25/35/25 9/36/9 
f 9/36/9 8/34/8 24/33/24 
f 25/35/25 26/37/26 12/38/12 
f 12/38/12 9/36/9 25/35/25 
f 26/39/26 27/40/27 13/41/13 
f 13/41/13 12/42/12 26/39/26 
f 13/41/13 27/40/27 28/43/28 
f 28/43/28 14/44/14 13/41/13 
f 14/44/14 28/43/28 29/45/29 
f 29/45/29 16/46/16 14/44/14 
f 16/47/16 29/48/29 30/49/30 
f 30/49/30 17/50/17 16/47/16 
f 30/49/30 19/19/19 2/22/2 
f 2/22/2 17/50/17 30/49/30 
f 19/19/19 31/51/31 32/52/32 
f 32/52/32 20/20/20 19/19/19 
f 20/23/20 32/53/32 33/54/33 
f 33/54/33 21/24/21 20/23/20 
f 21/24/21 33/54/33 34/55/34 
f 34/55/34 22/27/22 21/24/21 
f 22/27/22 34/55/34 35/56/35 
f 35/56/35 23/29/23 22/27/22 
f 23/32/23 35/57/35 36/58/36 
f 36/58/36 24/33/24 23/32/23 
f 24/33/24 36/58/36 37/59/37 
f 37/59/37 25/35/25 24/33/24 
f 25/35/25 37/59/37 38/60/38 
f 38/60/38 26/37/26 25/35/25 
f 26/39/26 38/61/38 39/62/39 
f 39/62/39 27/40/27 26/39/26 
f 27/40/27 39/62/39 40/63/40 
f 40/63/40 28/43/28 27/40/27 
f 28/43/28 40/63/40 41/64/41 
f 41/64/41 29/45/29 28/43/28 
f 29/48/29 41/65/41 42/66/42 
f 42/66/42 30/49/30 29/48/29 
f 30/49/30 42/66/42 31/51/31 
f 31/51/31 19/19/19 30/49/30 
f 31/51/31 43/67/43 44/68/44 
f 44/68/44 32/52/32 31/51/31 
f 32/53/32 44/69/44 45/70/45 
f 45/70/45 33/54/33 32/53/32 
f 45/70/45 46/71/46 34/55/34 
f 34/55/34 33/54/33 45/70/45 
f 46/71/46 47/72/47 35/56/35 
f 35/56/35 34/55/34 46/71/46 
f 47/73/47 48/74/48 36/58/36 
f 36/58/36 35/57/35 47/73/47 
f 36/58/36 48/74/48 49/75/49 
f 49/75/49 37/59/37 36/58/36 
f 37/59/37 49/75/49 50/76/50 
f 50/76/50 38/60/38 37/59/37 
f 38/61/38 50/77/50 51/78/51 
f 51/78/51 39/62/39 38/61/38 
f 51/78/51 52/79/52 40/63/40 
f 40/63/40 39/62/39 51/78/51 
f 52/79/52 53/80/53 41/64/41 
f 41/64/41 40/63/40 52/79/52 
f 53/81/53 54/82/54 42/66/42 
f 42/66/42 41/65/41 53/81/53 
f 42/66/42 54/82/54 43/67/43 
f 43/67/43 31/51/31 42/66/42 
f 43/83/43 55/84/55 44/85/44 
f 44/85/44 55/84/55 45/86/45 
f 45/86/45 55/84/55 56/87/56 
f 56/87/56 46/88/46 45/86/45 
f 46/88/46 56/87/56 47/89/47 
f 47/89/47 56/87/56 48/90/48 
f 56/87/56 57/91/57 49/92/49 
f 49/92/49 48/90/48 56/87/56 
f 49/92/49 57/91/57 50/93/50 
f 50/93/50 57/91/57 51/94/51 
f 51/94/51 57/91/57 58/95/58 
f 58/95/58 52/96/52 51/94/51 
f 52/96/52 58/95/58 53/97/53 
f 53/97/53 58/95/58 54/98/54 
f 58/95/58 55/84/55 43/83/43 
f 43/83/43 54/98/54 58/95/58 
f 58/95/58 57/91/57 56/87/56 
f 56/87/56 55/84/55 58/95/58 
s 2
f 59/99/59 60/100/60 61/101/60 
f 61/101/60 62/102/59 59/99/59 
f 60/100/60 63/103/61 64/104/61 
f 64/104/61 61/101/60 60/100/60 
f 63/103/61 65/105/62 66/106/62 
f 66/106/62 64/104/61 63/103/61 
f 66/106/62 65/105/62 67/107/63 
f 67/107/63 68/108/63 66/106/62 
f 67/107/63 69/109/64 70/110/64 
f 70/110/64 68/108/63 67/107/63 
f 69/109/64 71/111/65 72/112/65 
f 72/112/65 70/110/64 69/109/64 
f 72/112/65 71/111/65 73/113/66 
f 73/113/66 74/114/66 72/112/65 
f 74/114/66 73/113/66 75/115/67 
f 75/115/67 76/116/67 74/114/66 
f 75/115/67 77/117/68 78/118/68 
f 78/118/68 76/116/67 75/115/67 
f 77/117/68 79/119/69 80/120/69 
f 80/120/69 78/118/68 77/117/68 
f 80/120/69 79/119/69 81/121/70 
f 81/121/70 82/122/70 80/120/69 
f 81/121/70 59/99/59 62/102/59 
f 62/102/59 82/122/70 81/121/70 
f 83/123/59 84/124/59 85/125/60 
f 85/125/60 86/126/60 83/123/59 
f 86/126/60 85/125/60 87/127/61 
f 87/127/61 88/128/61 86/126/60 
f 88/128/61 87/127/61 89/129/62 
f 89/129/62 90/130/62 88/128/61 
f 89/129/62 91/131/71 92/132/63 
f 92/132/63 90/130/62 89/129/62 
f 91/131/71 93/133/64 94/134/64 
f 94/134/64 92/132/63 91/131/71 
f 93/133/64 95/135/65 96/136/65 
f 96/136/65 94/134/64 93/133/64 
f 96/136/65 95/135/65 97/137/66 
f 97/137/66 98/138/66 96/136/65 
f 97/137/66 99/139/67 100/140/67 
f 100/140/67 98/138/66 97/137/66 
f 100/140/67 99/139/67 101/141/68 
f 101/141/68 102/142/68 100/140/67 
f 102/142/68 101/141/68 103/143/69 
f 103/143/69 104/144/69 102/142/68 
f 103/143/69 105/145/70 106/146/70 
f 106/146/70 104/144/69 103/143/69 
f 106/146/70 105/145/70 84/124/59 
f 84/124/59 83/123/59 106/146/70 
f 107/147/59 108/148/59 109/149/60 
f 109/149/60 110/150/60 107/147/59 
f 109/149/60 111/151/61 112/152/61 
f 112/152/61 110/150/60 109/149/60 
f 111/151/61 113/153/62 114/154/72 
f 114/154/72 112/152/61 111/151/61 
f 114/154/72 113/153/62 115/155/73 
f 114/154/72 115/155/73 116/156/74 
f 114/154/72 116/156/74 117/157/71 
f 116/156/74 118/158/64 119/159/64 
f 119/159/64 117/157/71 116/156/74 
f 119/159/64 118/158/64 120/160/65 
f 120/160/65 121/161/65 119/159/64 
f 121/161/65 120/160/65 122/162/66 
f 122/162/66 123/163/66 121/161/65 
f 123/163/66 122/162/66 124/164/67 
f 124/164/67 125/165/67 123/163/66 
f 125/165/67 124/164/67 126/166/68 
f 126/166/68 127/167/68 125/165/67 
f 127/167/68 126/166/68 128/168/75 
f 128/168/75 129/169/69 127/167/68 
f 130/170/76 131/171/70 132/172/77 
f 128/168/75 130/170/76 132/172/77 
f 128/168/75 132/172/77 129/169/69 
f 131/171/70 108/148/59 107/147/59 
f 107/147/59 132/172/77 131/171/70 
f 133/173/59 134/174/59 135/175/60 
f 135/175/60 136/176/60 133/173/59 
f 136/176/60 135/175/60 137/177/61 
f 137/177/61 138/178/61 136/176/60 
f 138/178/61 137/177/61 139/179/62 
f 139/179/62 140/180/62 138/178/61 
f 139/179/62 141/181/71 142/182/63 
f 142/182/63 140/180/62 139/179/62 
f 141/181/71 143/183/64 144/184/64 
f 144/184/64 142/182/63 141/181/71 
f 144/184/64 143/183/64 145/185/65 
f 145/185/65 146/186/65 144/184/64 
f 146/186/65 145/185/65 147/187/66 
f 147/187/66 148/188/66 146/186/65 
f 148/188/66 147/187/66 149/189/67 
f 149/189/67 150/190/67 148/188/66 
f 150/190/67 149/189/67 151/191/68 
f 151/191/68 152/192/68 150/190/67 
f 151/191/68 153/193/69 154/194/69 
f 154/194/69 152/192/68 151/191/68 
f 153/193/69 155/195/70 156/196/70 
f 156/196/70 154/194/69 153/193/69 
f 155/195/70 134/174/59 133/173/59 
f 133/173/59 156/196/70 155/195/70 
f 157/197/59 158/198/60 159/199/60 
f 159/199/60 160/200/59 157/197/59 
f 158/198/60 161/201/61 162/202/61 
f 162/202/61 159/199/60 158/198/60 
f 162/202/61 161/201/61 163/203/62 
f 163/203/62 164/204/62 162/202/61 
f 164/204/62 163/203/62 165/205/71 
f 165/205/71 166/206/63 164/204/62 
f 166/206/63 165/205/71 167/207/64 
f 167/207/64 168/208/64 166/206/63 
f 168/208/64 167/207/64 169/209/65 
f 169/209/65 170/210/65 168/208/64 
f 170/210/65 169/209/65 171/211/66 
f 171/211/66 172/212/66 170/210/65 
f 172/212/66 171/211/66 173/213/67 
f 173/213/67 174/214/67 172/212/66 
f 174/214/67 173/213/67 175/215/68 
f 175/215/68 176/216/68 174/214/67 
f 176/216/68 175/215/68 177/217/69 
f 177/217/69 178/218/69 176/216/68 
f 178/218/69 177/217/69 179/219/70 
f 179/219/70 180/220/70 178/218/69 
f 179/219/70 157/197/59 160/200/59 
f 160/200/59 180/220/70 179/219/70 
s 1
f 59/99/78 81/121/78 103/143/78 
f 59/99/78 103/143/78 101/141/78 
f 60/100/78 59/99/78 101/141/78 
f 63/103/78 60/100/78 101/141/78 
f 65/105/78 63/103/78 101/141/78 
f 91/131/78 181/221/78 18/18/18 
f 93/133/78 91/131/78 18/18/18 
f 93/133/78 18/18/18 1/1/1 
f 95/135/78 93/133/78 1/1/1 
f 97/137/78 95/135/78 1/1/1 
f 99/139/78 97/137/78 1/1/1 
f 101/141/78 99/139/78 1/1/1 
f 65/105/78 101/141/78 1/1/1 
f 67/107/78 65/105/78 1/1/1 
f 69/109/78 67/107/78 1/1/1 
f 71/111/78 69/109/78 1/1/1 
f 73/113/78 71/111/78 1/1/1 
f 75/115/78 73/113/78 1/1/1 
f 75/115/78 1/1/1 6/6/6 
f 6/6/6 11/11/11 130/170/78 
f 130/170/78 128/168/79 126/166/78 
f 6/6/6 130/170/78 126/166/78 
f 6/6/6 126/166/78 124/164/78 
f 118/158/78 116/156/79 182/222/78 
f 118/158/78 182/222/78 181/221/78 
f 120/160/78 118/158/78 181/221/78 
f 181/221/78 91/131/78 89/129/78 
f 120/160/78 181/221/78 89/129/78 
f 122/162/78 120/160/78 89/129/78 
f 124/164/78 122/162/78 89/129/78 
f 124/164/78 89/129/78 87/127/78 
f 124/164/78 87/127/78 85/125/78 
f 124/164/78 85/125/78 84/124/78 
f 124/164/78 84/124/78 105/145/78 
f 6/6/6 124/164/78 105/145/78 
f 6/6/6 105/145/78 103/143/78 
f 103/143/78 81/121/78 79/119/78 
f 6/6/6 103/143/78 79/119/78 
f 6/6/6 79/119/78 77/117/78 
f 75/115/78 6/6/6 77/117/78 
f 61/101/78 64/104/78 66/106/78 
f 61/101/78 66/106/78 68/108/78 
f 62/102/78 61/101/78 68/108/78 
f 82/122/78 62/102/78 68/108/78 
f 80/120/78 82/122/78 68/108/78 
f 78/118/78 80/120/78 68/108/78 
f 76/116/78 78/118/78 68/108/78 
f 74/114/78 76/116/78 68/108/78 
f 74/114/78 68/108/78 70/110/78 
f 74/114/78 70/110/78 72/112/78 
f 98/138/78 100/140/78 102/142/78 
f 96/136/78 98/138/78 102/142/78 
f 94/134/78 96/136/78 102/142/78 
f 92/132/78 94/134/78 102/142/78 
f 90/130/78 92/132/78 102/142/78 
f 88/128/78 90/130/78 102/142/78 
f 86/126/78 88/128/78 102/142/78 
f 86/126/78 102/142/78 104/144/78 
f 83/123/78 86/126/78 104/144/78 
f 83/123/78 104/144/78 106/146/78 
f 129/169/78 132/172/78 107/147/78 
f 127/167/78 129/169/78 107/147/78 
f 127/167/78 107/147/78 110/150/78 
f 127/167/78 110/150/78 112/152/78 
f 127/167/78 112/152/78 114/154/78 
f 127/167/78 114/154/78 117/157/78 
f 125/165/78 127/167/78 117/157/78 
f 123/163/78 125/165/78 117/157/78 
f 121/161/78 123/163/78 117/157/78 
f 121/161/78 117/157/78 119/159/78 
f 148/188/78 150/190/78 152/192/78 
f 146/186/78 148/188/78 152/192/78 
f 144/184/78 146/186/78 152/192/78 
f 142/182/78 144/184/78 152/192/78 
f 140/180/78 142/182/78 152/192/78 
f 138/178/78 140/180/78 152/192/78 
f 136/176/78 138/178/78 152/192/78 
f 136/176/78 152/192/78 154/194/78 
f 133/173/78 136/176/78 154/194/78 
f 133/173/78 154/194/78 156/196/78 
f 159/199/78 162/202/78 164/204/78 
f 159/199/78 164/204/78 166/206/78 
f 160/200/78 159/199/78 166/206/78 
f 180/220/78 160/200/78 166/206/78 
f 178/218/78 180/220/78 166/206/78 
f 176/216/78 178/218/78 166/206/78 
f 174/214/78 176/216/78 166/206/78 
f 172/212/78 174/214/78 166/206/78 
f 172/212/78 166/206/78 168/208/78 
f 172/212/78 168/208/78 170/210/78 
f 182/222/78 116/156/79 115/155/78 
f 182/222/78 15/15/15 181/221/78 
f 181/221/78 15/15/15 18/18/18 
f 131/171/78 130/170/78 11/11/11 
f 108/148/78 131/171/78 11/11/11 
f 108/148/78 11/11/11 10/10/10 
f 15/15/15 165/205/78 163/203/78 
f 15/15/15 163/203/78 161/201/78 
f 10/10/10 15/15/15 161/201/78 
f 10/10/10 161/201/78 158/198/78 
f 10/10/10 158/198/78 157/197/78 
f 10/10/10 157/197/78 179/219/78 
f 10/10/10 179/219/78 177/217/78 
f 167/207/78 165/205/78 15/15/15 
f 15/15/15 141/181/78 139/179/78 
f 167/207/78 15/15/15 139/179/78 
f 169/209/78 167/207/78 139/179/78 
f 171/211/78 169/209/78 139/179/78 
f 173/213/78 171/211/78 139/179/78 
f 175/215/78 173/213/78 139/179/78 
f 175/215/78 139/179/78 137/177/78 
f 175/215/78 137/177/78 135/175/78 
f 175/215/78 135/175/78 134/174/78 
f 177/217/78 175/215/78 134/174/78 
f 177/217/78 134/174/78 155/195/78 
f 177/217/78 155/195/78 153/193/78 
f 10/10/10 177/217/78 153/193/78 
f 108/148/78 10/10/10 153/193/78 
f 108/148/78 153/193/78 151/191/78 
f 109/149/78 108/148/78 151/191/78 
f 111/151/78 109/149/78 151/191/78 
f 113/153/78 111/151/78 151/191/78 
f 113/153/78 151/191/78 149/189/78 
f 113/153/78 149/189/78 147/187/78 
f 113/153/78 147/187/78 145/185/78 
f 115/155/78 113/153/78 145/185/78 
f 115/155/78 145/185/78 143/183/78 
f 143/183/78 141/181/78 15/15/15 
f 115/155/78 143/183/78 15/15/15 
f 115/155/78 15/15/15 182/222/78 
# 360 faces

