# 3ds Max Wavefront OBJ Exporter v0.97b - (c)2007 guruware
# File Created: 12.12.2014 13:17:13

mtllib Wall1_H0.5.mtl

#
# object Box002
#

v  -0.4011 0.0200 0.5200
v  -0.4011 0.4800 0.5200
v  -0.9800 0.4800 0.5200
v  -0.9800 0.0200 0.5200
v  -0.9800 0.9800 0.5200
v  -0.9800 0.5200 0.5200
v  -0.0200 0.5200 0.5200
v  -0.0200 0.9800 0.5200
v  -0.6851 1.0200 0.5200
v  -0.6851 1.4800 0.5200
v  -0.9800 1.4800 0.5200
v  -0.9800 1.0200 0.5200
v  -0.9800 0.4800 -0.0200
v  -0.4020 0.4800 -0.0200
v  -0.4020 0.0200 -0.0200
v  -0.9800 0.0200 -0.0200
v  -0.9800 0.9800 -0.0200
v  -0.0194 0.9800 -0.0200
v  -0.0194 0.5200 -0.0200
v  -0.9800 0.5200 -0.0200
v  -0.9800 1.4800 -0.0200
v  -0.6856 1.4800 -0.0200
v  -0.6860 1.0200 -0.0200
v  -0.9800 1.0200 -0.0200
v  1.0200 0.0200 0.4800
v  1.0200 0.0200 0.0200
v  1.0200 0.4800 0.0200
v  1.0200 0.4800 0.4800
v  1.0200 0.5200 0.0200
v  1.0200 0.9800 0.0200
v  1.0200 0.9800 0.4800
v  1.0200 0.5200 0.4800
v  1.0200 1.0200 0.0200
v  1.0200 1.4800 0.0200
v  1.0200 1.4800 0.4800
v  1.0200 1.0200 0.4800
v  0.9800 1.5200 0.0200
v  0.3472 1.5200 0.0200
v  0.3536 1.5200 0.4800
v  0.9800 1.5200 0.4800
v  -1.0200 1.4800 0.0200
v  -1.0200 1.0200 0.0200
v  -1.0200 1.0200 0.4800
v  -1.0200 1.4800 0.4800
v  -1.0200 0.9800 0.0200
v  -1.0200 0.5200 0.0200
v  -1.0200 0.5200 0.4800
v  -1.0200 0.9800 0.4800
v  -1.0200 0.4800 0.4800
v  -1.0200 0.4800 0.0200
v  -1.0200 0.0200 0.0200
v  -1.0200 0.0200 0.4800
v  0.9800 0.4800 0.5200
v  0.5200 0.4800 0.5200
v  0.5200 0.0200 0.5200
v  0.9800 0.0200 0.5200
v  0.9800 1.4800 0.5200
v  0.3538 1.4800 0.5200
v  0.3538 1.0200 0.5200
v  0.9800 1.0200 0.5200
v  -0.3611 0.4800 0.5200
v  -0.3611 0.0200 0.5200
v  0.4800 0.0200 0.5200
v  0.4800 0.4800 0.5200
v  -0.6451 1.4800 0.5200
v  -0.6451 1.0200 0.5200
v  0.3138 1.0200 0.5200
v  0.3138 1.4800 0.5200
v  0.0200 0.9800 0.5200
v  0.0200 0.5200 0.5200
v  0.9800 0.5200 0.5200
v  0.9800 0.9800 0.5200
v  0.9800 0.4800 -0.0200
v  0.9800 0.0200 -0.0200
v  0.5191 0.0200 -0.0200
v  0.5191 0.4800 -0.0200
v  0.9800 1.0200 -0.0200
v  0.3467 1.0200 -0.0200
v  0.3469 1.4800 -0.0200
v  0.9800 1.4800 -0.0200
v  -0.3620 0.4800 -0.0200
v  0.4791 0.4800 -0.0200
v  0.4791 0.0200 -0.0200
v  -0.3620 0.0200 -0.0200
v  -0.6456 1.4800 -0.0200
v  0.3069 1.4800 -0.0200
v  0.3067 1.0200 -0.0200
v  -0.6460 1.0200 -0.0200
v  0.0206 0.9800 -0.0200
v  0.9800 0.9800 -0.0200
v  0.9800 0.5200 -0.0200
v  0.0206 0.5200 -0.0200
v  0.3072 1.5200 0.0200
v  -0.6456 1.5200 0.0200
v  -0.6452 1.5200 0.4800
v  0.3136 1.5200 0.4800
v  -0.6856 1.5200 0.0200
v  -0.9800 1.5200 0.0200
v  -0.9800 1.5200 0.4800
v  -0.6852 1.5200 0.4800
v  -1.0000 0.5000 0.5000
v  -0.3811 0.5000 0.5000
v  0.0000 0.5000 0.5000
v  0.0000 1.0000 0.5000
v  -1.0000 1.0000 0.5000
v  -0.6651 1.0000 0.5000
v  -0.6651 1.5000 0.5000
v  -1.0000 0.5000 0.0000
v  -0.3820 0.5000 0.0000
v  -0.6660 1.0000 0.0000
v  0.0006 1.0000 0.0000
v  -1.0000 1.0000 0.0000
v  0.0006 0.5000 0.0000
v  -0.6656 1.5000 0.0000
v  1.0000 0.5000 0.5000
v  1.0000 0.5000 0.0000
v  1.0000 1.0000 0.5000
v  1.0000 1.0000 0.0000
v  0.3338 1.5000 0.5000
v  0.3269 1.5000 0.0000
v  0.5000 0.5000 0.5000
v  0.3338 1.0000 0.5000
v  0.4991 0.5000 0.0000
v  0.3267 1.0000 0.0000
v  0.4999 0.0007 -0.0007
v  0.4991 0.0007 -0.0000
v  -0.3812 0.0007 -0.0007
v  -0.3820 0.0007 -0.0000
v  0.4984 0.0007 -0.0007
v  0.9993 0.0007 -0.0007
v  -0.9993 0.0007 -0.0007
v  -0.3827 0.0007 -0.0007
v  -0.9993 0.0007 0.5007
v  -0.3818 0.0007 0.5007
v  -1.0007 0.0007 0.4993
v  -1.0007 0.0007 0.0007
v  0.4993 0.0007 0.5007
v  0.5000 0.0007 0.5000
v  -0.3811 0.0007 0.5000
v  -0.3804 0.0007 0.5007
v  0.5007 0.0007 0.5007
v  0.9993 0.0007 0.5007
v  1.0007 0.0007 0.4993
v  1.0007 0.0007 0.0007
v  -1.0000 1.5000 0.5000
v  1.0000 1.5000 0.0000
v  1.0000 1.5000 0.5000
v  -1.0000 1.5000 0.0000
# 148 vertices

vn 0.0000 -0.0000 1.0000
vn 0.0000 0.0000 -1.0000
vn 1.0000 0.0000 -0.0000
vn 0.0000 1.0000 0.0000
vn 0.0000 1.0000 -0.0000
vn -1.0000 0.0000 -0.0000
vn -0.0000 1.0000 -0.0000
vn -0.0000 1.0000 0.0000
vn 0.0000 0.7071 0.7071
vn 0.7071 -0.0000 0.7071
vn 0.0000 -0.7071 0.7071
vn 0.0000 0.7071 -0.7071
vn 0.7071 -0.0000 -0.7071
vn 0.0000 -0.7071 -0.7071
vn 0.7071 -0.0006 -0.7071
vn 0.7071 0.7071 0.0000
vn 0.7071 -0.7071 -0.0000
vn -0.7070 0.7071 0.0098
vn -0.7071 -0.7071 -0.0000
vn -0.7071 0.7071 0.0000
vn -0.7071 -0.0000 0.7071
vn -0.7071 0.0000 0.7071
vn -0.7071 0.0002 -0.7071
vn 0.7071 -0.0002 -0.7071
vn -0.7071 0.0006 -0.7071
vn -0.7071 0.0000 -0.7071
vn -0.7071 0.7071 0.0006
vn 0.7070 0.7071 -0.0098
vn 0.7071 0.7071 -0.0006
vn -0.0000 0.7071 0.7071
vn 0.7071 0.0000 -0.7071
vn -0.7071 -0.0000 -0.7071
vn -0.0000 0.7071 -0.7071
vn 0.7071 0.0000 0.7071
vn 0.0000 -1.0000 -0.0000
# 35 vertex normals

vt 0.3034 0.5033 1.0000
vt 0.3034 0.6556 1.0000
vt 0.0196 0.6556 1.0000
vt 0.0196 0.5033 1.0000
vt 0.0196 0.8212 1.0000
vt 0.0196 0.6689 1.0000
vt 0.4902 0.6689 1.0000
vt 0.4902 0.8212 1.0000
vt 0.1641 0.8344 1.0000
vt 0.1641 0.9868 1.0000
vt 0.0196 0.9868 1.0000
vt 0.0196 0.8344 1.0000
vt 0.0196 0.6556 -0.0000
vt 0.3030 0.6556 -0.0000
vt 0.3030 0.5033 -0.0000
vt 0.0196 0.5033 -0.0000
vt 0.0196 0.8212 -0.0000
vt 0.4905 0.8212 -0.0000
vt 0.4905 0.6689 -0.0000
vt 0.0196 0.6689 -0.0000
vt 0.0196 0.9868 -0.0000
vt 0.1639 0.9868 -0.0000
vt 0.1637 0.8344 -0.0000
vt 0.0196 0.8344 -0.0000
vt 2.3711 0.0067 -1.5400
vt 2.0390 0.0067 -1.5400
vt 2.0390 0.1600 -1.5400
vt 2.3711 0.1600 -1.5400
vt 2.0390 0.1733 -1.5400
vt 2.0390 0.3267 -1.5400
vt 2.3711 0.3267 -1.5400
vt 2.3711 0.1733 -1.5400
vt 2.0390 0.3400 -1.5400
vt 2.0390 0.4933 -1.5400
vt 2.3711 0.4933 -1.5400
vt 2.3711 0.3400 -1.5400
vt 0.9900 0.9892 1.0000
vt 0.6736 0.9892 1.0000
vt 0.6768 0.8672 1.0000
vt 0.9900 0.8672 1.0000
vt 2.0390 0.4933 2.5400
vt 2.0390 0.3400 2.5400
vt 2.3711 0.3400 2.5400
vt 2.3711 0.4933 2.5400
vt 2.0390 0.3267 2.5400
vt 2.0390 0.1733 2.5400
vt 2.3711 0.1733 2.5400
vt 2.3711 0.3267 2.5400
vt 2.3711 0.1600 2.5400
vt 2.0390 0.1600 2.5400
vt 2.0390 0.0067 2.5400
vt 2.3711 0.0067 2.5400
vt 0.9804 0.6556 1.0000
vt 0.7549 0.6556 1.0000
vt 0.7549 0.5033 1.0000
vt 0.9804 0.5033 1.0000
vt 0.9804 0.9868 1.0000
vt 0.6734 0.9868 1.0000
vt 0.6734 0.8344 1.0000
vt 0.9804 0.8344 1.0000
vt 0.3230 0.6556 1.0000
vt 0.3230 0.5033 1.0000
vt 0.7353 0.5033 1.0000
vt 0.7353 0.6556 1.0000
vt 0.1838 0.9868 1.0000
vt 0.1838 0.8344 1.0000
vt 0.6538 0.8344 1.0000
vt 0.6538 0.9868 1.0000
vt 0.5098 0.8212 1.0000
vt 0.5098 0.6689 1.0000
vt 0.9804 0.6689 1.0000
vt 0.9804 0.8212 1.0000
vt 0.9804 0.6556 -0.0000
vt 0.9804 0.5033 -0.0000
vt 0.7545 0.5033 -0.0000
vt 0.7545 0.6556 -0.0000
vt 0.9804 0.8344 -0.0000
vt 0.6700 0.8344 -0.0000
vt 0.6700 0.9868 -0.0000
vt 0.9804 0.9868 -0.0000
vt 0.3226 0.6556 -0.0000
vt 0.7349 0.6556 -0.0000
vt 0.7349 0.5033 -0.0000
vt 0.3226 0.5033 -0.0000
vt 0.1835 0.9868 -0.0000
vt 0.6504 0.9868 -0.0000
vt 0.6504 0.8344 -0.0000
vt 0.1833 0.8344 -0.0000
vt 0.5101 0.8212 -0.0000
vt 0.9804 0.8212 -0.0000
vt 0.9804 0.6689 -0.0000
vt 0.5101 0.6689 -0.0000
vt 0.6536 0.9892 1.0000
vt 0.1772 0.9892 1.0000
vt 0.1774 0.8672 1.0000
vt 0.6568 0.8672 1.0000
vt 0.1572 0.9892 1.0000
vt 0.0100 0.9892 1.0000
vt 0.0100 0.8672 1.0000
vt 0.1574 0.8672 1.0000
vt 0.0098 0.6623 0.9630
vt 0.3132 0.6623 0.9630
vt 0.5000 0.6623 0.9630
vt 0.5000 0.8278 0.9630
vt 0.0098 0.8278 0.9630
vt 0.1740 0.8278 0.9630
vt 0.1740 0.9934 0.9630
vt 0.0098 0.6623 0.0370
vt 0.3128 0.6623 0.0370
vt 0.1735 0.8278 0.0370
vt 0.5003 0.8278 0.0370
vt 0.0098 0.8278 0.0370
vt 0.5003 0.6623 0.0370
vt 0.1737 0.9934 0.0370
vt 2.3855 0.1667 -1.5000
vt 2.0246 0.1667 -1.5000
vt 2.3855 0.3333 -1.5000
vt 2.0246 0.3333 -1.5000
vt 0.6669 0.8619 0.0000
vt 0.6634 0.9945 0.0000
vt 2.3855 0.3333 2.5000
vt 2.0246 0.3333 2.5000
vt 2.3855 0.1667 2.5000
vt 2.0246 0.1667 2.5000
vt 0.9902 0.6623 0.9630
vt 0.7451 0.6623 0.9630
vt 0.9902 0.8278 0.9630
vt 0.6636 0.8278 0.9630
vt 0.6636 0.9934 0.9630
vt 0.7447 0.6623 0.0370
vt 0.9902 0.6623 0.0370
vt 0.9902 0.8278 0.0370
vt 0.6602 0.8278 0.0370
vt 0.6602 0.9934 0.0370
vt 0.1674 0.8619 0.0000
vt 0.1672 0.9945 0.0000
vt 0.7450 0.4969 0.0357
vt 0.7447 0.4969 0.0370
vt 0.3131 0.4969 0.0357
vt 0.3128 0.4969 0.0370
vt 0.7443 0.4969 0.0357
vt 0.9898 0.4969 0.0357
vt 0.0102 0.4969 0.0357
vt 0.3124 0.4969 0.0357
vt 0.0102 0.4969 0.9643
vt 0.3128 0.4969 0.9643
vt 2.3850 0.0002 2.5015
vt 2.0251 0.0002 2.5015
vt 0.7447 0.4969 0.9643
vt 0.7451 0.4969 0.9630
vt 0.3132 0.4969 0.9630
vt 0.3135 0.4969 0.9643
vt 0.7455 0.4969 0.9643
vt 0.9898 0.4969 0.9643
vt 2.3850 0.0002 -1.5015
vt 2.0251 0.0002 -1.5015
vt 0.1641 1.0000 0.9259
vt 0.0196 1.0000 0.9259
vt 0.0098 0.9934 0.9630
vt 1.0000 0.8212 0.0741
vt 1.0000 0.6689 0.0741
vt 1.0000 0.9868 0.0741
vt 1.0000 0.8344 0.0741
vt 0.9902 0.9934 0.0370
vt 1.0000 0.8619 -0.0000
vt 1.0100 0.8672 -1.0000
vt 1.0100 0.9892 -1.0000
vt 1.0000 0.9945 -0.0000
vt 0.0000 0.8344 0.0741
vt 0.0000 0.9868 0.0741
vt 0.0098 0.9934 0.0370
vt 0.0000 0.9868 0.9259
vt 0.0000 0.8344 0.9259
vt 0.0000 0.6689 0.0741
vt 0.0000 0.8212 0.0741
vt 0.0000 0.8212 0.9259
vt 0.0000 0.6689 0.9259
vt 1.0000 0.8344 0.9259
vt 1.0000 0.9868 0.9259
vt 0.9902 0.9934 0.9630
vt 0.9804 1.0000 0.9259
vt 0.6733 1.0000 0.9259
vt 1.0000 0.6689 0.9259
vt 1.0000 0.8212 0.9259
vt 0.6702 1.0000 0.0741
vt 0.9804 1.0000 0.0741
vt 0.1836 1.0000 0.0741
vt 0.6506 1.0000 0.0741
vt 0.6537 1.0000 0.9259
vt 0.1837 1.0000 0.9259
vt 0.0196 1.0000 0.0741
vt 0.1639 1.0000 0.0741
vt 0.0000 0.8619 0.0000
vt -0.0100 0.8672 -1.0000
vt -0.0100 0.9892 -1.0000
vt 0.0000 0.9945 0.0000
vt 0.9906 0.4969 0.0384
vt 1.0000 0.5033 0.0741
vt 1.0000 0.6556 0.0741
vt 0.0094 0.4969 0.9616
vt 0.0000 0.5033 0.9259
vt 0.0000 0.6556 0.9259
vt 0.0094 0.4969 0.0384
vt 0.0000 0.5033 0.0741
vt 0.0000 0.6556 0.0741
vt 0.9906 0.4969 0.9616
vt 1.0000 0.5033 0.9259
vt 1.0000 0.6556 0.9259
vt 0.0000 -0.3551 7.7925
vt 0.0000 -0.4733 8.3750
vt 0.0007 -0.4736 8.3794
vt 0.0007 -0.3547 7.7930
vt 0.3088 -0.4736 9.5254
vt 0.3092 -0.4735 9.5254
vt 0.3092 -0.3547 8.9404
vt 0.3096 -0.3549 8.9429
vt 0.3095 -0.4736 9.5278
vt 0.3100 -0.3547 8.9434
vt 0.7490 -0.4736 11.1626
vt 0.7494 -0.4735 11.1626
vt 0.7495 -0.3547 10.5776
vt 0.7498 -0.3549 10.5801
vt 0.7497 -0.4736 11.1650
vt 0.9993 -0.4736 12.0933
vt 1.0000 -0.4733 12.0938
vt 1.0000 -0.3551 11.5112
vt 0.9993 -0.3547 11.5068
vt 0.7502 -0.3547 10.5806
# 228 texture coords

g Box002
usemtl Wall1
s 1
f 1/1/1 2/2/1 3/3/1 
f 3/3/1 4/4/1 1/1/1 
f 5/5/1 6/6/1 7/7/1 
f 7/7/1 8/8/1 5/5/1 
f 9/9/1 10/10/1 11/11/1 
f 11/11/1 12/12/1 9/9/1 
f 13/13/2 14/14/2 15/15/2 
f 15/15/2 16/16/2 13/13/2 
f 17/17/2 18/18/2 19/19/2 
f 19/19/2 20/20/2 17/17/2 
f 21/21/2 22/22/2 23/23/2 
f 23/23/2 24/24/2 21/21/2 
f 25/25/3 26/26/3 27/27/3 
f 27/27/3 28/28/3 25/25/3 
f 29/29/3 30/30/3 31/31/3 
f 31/31/3 32/32/3 29/29/3 
f 33/33/3 34/34/3 35/35/3 
f 35/35/3 36/36/3 33/33/3 
f 37/37/4 38/38/5 39/39/4 
f 39/39/4 40/40/4 37/37/4 
f 41/41/6 42/42/6 43/43/6 
f 43/43/6 44/44/6 41/41/6 
f 45/45/6 46/46/6 47/47/6 
f 47/47/6 48/48/6 45/45/6 
f 49/49/6 50/50/6 51/51/6 
f 51/51/6 52/52/6 49/49/6 
f 53/53/1 54/54/1 55/55/1 
f 55/55/1 56/56/1 53/53/1 
f 57/57/1 58/58/1 59/59/1 
f 59/59/1 60/60/1 57/57/1 
f 61/61/1 62/62/1 63/63/1 
f 63/63/1 64/64/1 61/61/1 
f 65/65/1 66/66/1 67/67/1 
f 67/67/1 68/68/1 65/65/1 
f 69/69/1 70/70/1 71/71/1 
f 71/71/1 72/72/1 69/69/1 
f 73/73/2 74/74/2 75/75/2 
f 75/75/2 76/76/2 73/73/2 
f 77/77/2 78/78/2 79/79/2 
f 79/79/2 80/80/2 77/77/2 
f 81/81/2 82/82/2 83/83/2 
f 83/83/2 84/84/2 81/81/2 
f 85/85/2 86/86/2 87/87/2 
f 87/87/2 88/88/2 85/85/2 
f 89/89/2 90/90/2 91/91/2 
f 91/91/2 92/92/2 89/89/2 
f 93/93/7 94/94/4 95/95/8 
f 95/95/8 96/96/7 93/93/7 
f 97/97/4 98/98/4 99/99/4 
f 99/99/4 100/100/4 97/97/4 
s 2
f 101/101/9 3/3/9 2/2/9 
f 2/2/9 102/102/9 101/101/9 
f 103/103/10 104/104/10 8/8/10 
f 8/8/10 7/7/10 103/103/10 
f 105/105/11 106/106/11 9/9/11 
f 9/9/11 12/12/11 105/105/11 
s 8
f 106/106/10 107/107/10 10/10/10 
f 10/10/10 9/9/10 106/106/10 
s 2
f 108/108/12 109/109/12 14/14/12 
f 14/14/12 13/13/12 108/108/12 
f 110/110/12 111/111/12 18/18/12 
f 110/110/12 18/18/12 17/17/12 
f 110/110/12 17/17/12 112/112/12 
s 4
f 111/111/13 113/113/13 19/19/13 
f 19/19/13 18/18/13 111/111/13 
s 16
f 109/109/14 108/108/14 20/20/14 
f 109/109/14 20/20/14 19/19/14 
f 109/109/14 19/19/14 113/113/14 
s 4
f 110/110/15 23/23/15 22/22/15 
f 22/22/15 114/114/15 110/110/15 
s 16
f 110/110/14 112/112/14 24/24/14 
f 24/24/14 23/23/14 110/110/14 
s 2
f 115/115/16 28/28/16 27/27/16 
f 27/27/16 116/116/16 115/115/16 
s 4
f 115/115/17 116/116/17 29/29/17 
f 29/29/17 32/32/17 115/115/17 
s 2
f 117/117/16 31/31/16 30/30/16 
f 30/30/16 118/118/16 117/117/16 
s 4
f 117/117/17 118/118/17 33/33/17 
f 33/33/17 36/36/17 117/117/17 
s 2
f 119/119/18 39/39/18 38/38/18 
f 38/38/18 120/120/18 119/119/18 
s 32
f 105/121/19 43/43/19 42/42/19 
f 42/42/19 112/122/19 105/121/19 
s 64
f 105/121/20 112/122/20 45/45/20 
f 45/45/20 48/48/20 105/121/20 
s 32
f 101/123/19 47/47/19 46/46/19 
f 46/46/19 108/124/19 101/123/19 
s 64
f 101/123/20 108/124/20 50/50/20 
f 50/50/20 49/49/20 101/123/20 
s 32
f 115/125/9 121/126/9 54/54/9 
f 54/54/9 53/53/9 115/125/9 
f 117/127/11 60/60/11 59/59/11 
f 59/59/11 122/128/11 117/127/11 
s 8
f 119/129/21 122/128/21 59/59/21 
f 59/59/21 58/58/21 119/129/21 
s 64
f 122/128/10 119/129/10 68/68/10 
f 68/68/10 67/67/10 122/128/10 
s 32
f 107/107/22 106/106/22 66/66/22 
f 66/66/22 65/65/22 107/107/22 
s 64
f 121/126/11 115/125/11 71/71/11 
f 121/126/11 71/71/11 70/70/11 
f 121/126/11 70/70/11 103/103/11 
s 8
f 104/104/21 103/103/21 70/70/21 
f 70/70/21 69/69/21 104/104/21 
s 32
f 123/130/12 116/131/12 73/73/12 
f 73/73/12 76/76/12 123/130/12 
f 118/132/14 124/133/14 78/78/14 
f 78/78/14 77/77/14 118/132/14 
s 8
f 120/134/23 79/79/23 78/78/23 
f 78/78/23 124/133/23 120/134/23 
f 113/113/12 123/130/12 82/82/12 
f 113/113/12 82/82/12 81/81/12 
f 113/113/12 81/81/12 109/109/12 
s 64
f 124/133/24 87/87/24 86/86/24 
f 86/86/24 120/134/24 124/133/24 
s 128
f 111/111/14 110/110/14 88/88/14 
f 111/111/14 88/88/14 87/87/14 
f 111/111/14 87/87/14 124/133/14 
s 8
f 114/114/25 85/85/25 88/88/25 
f 88/88/25 110/110/25 114/114/25 
s 256
f 124/133/12 118/132/12 90/90/12 
f 124/133/12 90/90/12 89/89/12 
f 124/133/12 89/89/12 111/111/12 
s 32
f 113/113/26 111/111/26 89/89/26 
f 89/89/26 92/92/26 113/113/26 
s 64
f 107/135/27 95/95/27 94/94/27 
f 94/94/27 114/136/27 107/135/27 
s 32
f 120/120/28 93/93/28 96/96/28 
f 96/96/28 119/119/28 120/120/28 
s 128
f 114/136/29 97/97/29 100/100/29 
f 100/100/29 107/135/29 114/136/29 
s 2
f 76/76/26 75/75/26 125/137/26 
f 76/76/26 125/137/26 126/138/26 
f 76/76/26 126/138/26 123/130/26 
s 32
f 81/81/26 84/84/26 127/139/26 
f 81/81/26 127/139/26 128/140/26 
f 81/81/26 128/140/26 109/109/26 
s 8
f 83/83/14 129/141/14 127/139/14 
f 127/139/14 84/84/14 83/83/14 
s 32
f 75/75/14 74/74/14 130/142/14 
f 130/142/14 125/137/14 75/75/14 
s 16
f 131/143/14 16/16/14 15/15/14 
f 15/15/14 132/144/14 131/143/14 
s 2
f 1/1/11 4/4/11 133/145/11 
f 133/145/11 134/146/11 1/1/11 
s 64
f 135/147/19 52/52/19 51/51/19 
f 51/51/19 136/148/19 135/147/19 
s 4
f 64/64/10 63/63/10 137/149/10 
f 64/64/10 137/149/10 138/150/10 
f 64/64/10 138/150/10 121/126/10 
s 8
f 2/2/10 1/1/10 134/146/10 
f 2/2/10 134/146/10 139/151/10 
f 2/2/10 139/151/10 102/102/10 
s 16
f 63/63/11 62/62/11 140/152/11 
f 140/152/11 137/149/11 63/63/11 
s 32
f 56/56/11 55/55/11 141/153/11 
f 141/153/11 142/154/11 56/56/11 
s 4
f 26/26/17 25/25/17 143/155/17 
f 143/155/17 144/156/17 26/26/17 
f 6/6/11 101/101/11 102/102/11 
f 7/7/11 6/6/11 102/102/11 
f 7/7/11 102/102/11 103/103/11 
f 8/8/9 104/104/9 106/106/9 
f 5/5/9 8/8/9 106/106/9 
f 5/5/9 106/106/9 105/105/9 
s 2
f 11/11/30 10/10/9 107/107/9 
f 11/11/30 107/107/9 100/157/9 
f 11/11/30 100/157/9 99/158/30 
f 11/11/30 99/158/30 145/159/30 
s 8
f 30/160/13 29/161/31 116/131/31 
f 30/160/13 116/131/31 91/91/31 
f 30/160/13 91/91/31 90/90/13 
f 30/160/13 90/90/13 118/132/13 
s 16
f 34/162/13 33/163/31 118/132/31 
f 34/162/13 118/132/31 77/77/31 
f 34/162/13 77/77/31 80/80/13 
f 34/162/13 80/80/13 146/164/13 
s 2
f 37/37/16 40/40/16 147/165/16 
f 37/37/16 147/165/16 35/166/16 
f 37/37/16 35/166/16 34/167/16 
f 37/37/16 34/167/16 146/168/16 
s 8
f 21/21/32 24/24/26 112/112/26 
f 21/21/32 112/112/26 42/169/26 
f 21/21/32 42/169/26 41/170/32 
f 21/21/32 41/170/32 148/171/32 
f 12/12/21 11/11/21 145/159/21 
f 12/12/21 145/159/21 44/172/21 
f 12/12/21 44/172/21 43/173/21 
f 12/12/21 43/173/21 105/105/21 
s 4
f 17/17/32 20/20/26 108/108/26 
f 17/17/32 108/108/26 46/174/26 
f 17/17/32 46/174/26 45/175/32 
f 17/17/32 45/175/32 112/112/32 
s 16
f 6/6/21 5/5/21 105/105/21 
f 6/6/21 105/105/21 48/176/21 
f 6/6/21 48/176/21 47/177/21 
f 6/6/21 47/177/21 101/101/21 
f 36/178/10 35/179/10 147/180/10 
f 36/178/10 147/180/10 57/57/10 
f 36/178/10 57/57/10 60/60/10 
f 36/178/10 60/60/10 117/127/10 
s 4
f 40/181/9 39/182/9 119/129/9 
f 40/181/9 119/129/9 58/58/9 
f 40/181/9 58/58/9 57/57/9 
f 40/181/9 57/57/9 147/180/9 
s 16
f 64/64/9 121/126/9 103/103/9 
f 61/61/9 64/64/9 103/103/9 
f 61/61/9 103/103/9 102/102/9 
f 66/66/11 106/106/11 104/104/11 
f 67/67/11 66/66/11 104/104/11 
f 67/67/11 104/104/11 122/128/11 
s 8
f 32/183/10 31/184/10 117/127/10 
f 32/183/10 117/127/10 72/72/10 
f 32/183/10 72/72/10 71/71/10 
f 32/183/10 71/71/10 115/125/10 
s 128
f 72/72/9 117/127/9 122/128/9 
f 69/69/9 72/72/9 122/128/9 
f 69/69/9 122/128/9 104/104/9 
s 4
f 80/80/33 79/79/12 120/134/12 
f 80/80/33 120/134/12 38/185/12 
f 80/80/33 38/185/12 37/186/33 
f 80/80/33 37/186/33 146/164/33 
s 64
f 91/91/14 116/131/14 123/130/14 
f 92/92/14 91/91/14 123/130/14 
f 92/92/14 123/130/14 113/113/14 
s 16
f 94/187/12 93/188/33 120/134/33 
f 94/187/12 120/134/33 86/86/33 
f 94/187/12 86/86/33 85/85/12 
f 94/187/12 85/85/12 114/114/12 
f 65/65/30 68/68/30 119/129/30 
f 65/65/30 119/129/30 96/189/30 
f 65/65/30 96/189/30 95/190/30 
f 65/65/30 95/190/30 107/107/30 
s 2
f 98/191/12 97/192/12 114/114/33 
f 98/191/12 114/114/33 22/22/33 
f 98/191/12 22/22/33 21/21/12 
f 98/191/12 21/21/12 148/171/12 
s 4
f 145/193/20 99/99/20 98/98/20 
f 44/194/20 145/193/20 98/98/20 
f 41/195/20 44/194/20 98/98/20 
f 41/195/20 98/98/20 148/196/20 
s 16
f 144/197/31 130/142/31 74/74/31 
f 26/198/31 144/197/31 74/74/31 
f 27/199/13 26/198/31 74/74/31 
f 27/199/13 74/74/31 73/73/13 
f 27/199/13 73/73/13 116/131/13 
s 4
f 129/141/31 83/83/31 82/82/31 
f 126/138/31 129/141/31 82/82/31 
f 126/138/31 82/82/31 123/130/31 
f 132/144/31 15/15/31 14/14/31 
f 128/140/31 132/144/31 14/14/31 
f 128/140/31 14/14/31 109/109/31 
s 8
f 135/200/21 133/145/21 4/4/21 
f 52/201/21 135/200/21 4/4/21 
f 49/202/21 52/201/21 4/4/21 
f 49/202/21 4/4/21 3/3/21 
f 49/202/21 3/3/21 101/101/21 
f 16/16/26 131/143/26 136/203/26 
f 16/16/26 136/203/26 51/204/26 
f 13/13/32 16/16/26 51/204/26 
f 13/13/32 51/204/26 50/205/32 
f 13/13/32 50/205/32 108/108/32 
s 2
f 141/153/21 55/55/21 54/54/21 
f 138/150/21 141/153/21 54/54/21 
f 138/150/21 54/54/21 121/126/21 
s 16
f 142/154/34 143/206/34 25/207/10 
f 56/56/10 142/154/34 25/207/10 
f 53/53/10 56/56/10 25/207/10 
f 53/53/10 25/207/10 28/208/10 
f 53/53/10 28/208/10 115/125/10 
s 32
f 140/152/21 62/62/21 61/61/21 
f 139/151/21 140/152/21 61/61/21 
f 139/151/21 61/61/21 102/102/21 
s 1
f 135/209/35 136/210/35 131/211/35 
f 133/212/35 135/209/35 131/211/35 
f 133/212/35 131/211/35 132/213/35 
f 133/212/35 132/213/35 128/214/35 
f 134/215/35 133/212/35 128/214/35 
f 139/216/35 134/215/35 128/214/35 
f 139/216/35 128/214/35 127/217/35 
f 140/218/35 139/216/35 127/217/35 
f 140/218/35 127/217/35 129/219/35 
f 140/218/35 129/219/35 126/220/35 
f 137/221/35 140/218/35 126/220/35 
f 138/222/35 137/221/35 126/220/35 
f 126/220/35 125/223/35 130/224/35 
f 138/222/35 126/220/35 130/224/35 
f 138/222/35 130/224/35 144/225/35 
f 138/222/35 144/225/35 143/226/35 
f 138/222/35 143/226/35 142/227/35 
f 138/222/35 142/227/35 141/228/35 
# 292 faces

