# 3ds Max Wavefront OBJ Exporter v0.97b - (c)2007 guruware
# File Created: 12.12.2014 17:33:51

mtllib Wall1_Half_H0.3.mtl

#
# object Box003
#

v  0.4700 0.0277 -0.0300
v  -0.4700 0.0277 -0.0300
v  -0.4700 0.4677 -0.0300
v  0.4700 0.4677 -0.0300
v  -0.4700 0.9677 -0.0300
v  -0.0300 0.9677 -0.0300
v  -0.0300 0.5277 -0.0300
v  -0.4700 0.5277 -0.0300
v  -0.4700 0.0277 0.5300
v  0.4700 0.0277 0.5300
v  0.4700 0.4677 0.5300
v  -0.4700 0.4677 0.5300
v  -0.0300 0.5277 0.5300
v  -0.0300 0.9677 0.5300
v  -0.4700 0.9677 0.5300
v  -0.4700 0.5277 0.5300
v  0.5300 0.0277 0.4700
v  0.5300 0.0277 0.0300
v  0.5300 0.4677 0.0300
v  0.5300 0.4677 0.4700
v  0.5300 0.9677 0.4700
v  0.5300 0.5277 0.4700
v  0.5300 0.5277 0.0300
v  0.5300 0.9677 0.0300
v  0.0300 1.0277 0.0300
v  0.0300 1.0277 0.4700
v  0.4700 1.0277 0.4700
v  0.4700 1.0277 0.0300
v  -0.5300 0.5277 0.4700
v  -0.5300 0.9677 0.4700
v  -0.5300 0.9677 0.0300
v  -0.5300 0.5277 0.0300
v  -0.5300 0.4677 0.4700
v  -0.5300 0.4677 0.0300
v  -0.5300 0.0277 0.0300
v  -0.5300 0.0277 0.4700
v  0.4700 0.5277 -0.0300
v  0.0300 0.5277 -0.0300
v  0.0300 0.9677 -0.0300
v  0.4700 0.9677 -0.0300
v  0.4700 0.5277 0.5300
v  0.4700 0.9677 0.5300
v  0.0300 0.9677 0.5300
v  0.0300 0.5277 0.5300
v  -0.4700 1.0277 0.0300
v  -0.4700 1.0277 0.4700
v  -0.0300 1.0277 0.4700
v  -0.0300 1.0277 0.0300
v  0.5000 -0.0023 0.0000
v  -0.5000 -0.0023 0.0000
v  0.0000 0.4977 0.0000
v  0.0000 0.9977 0.0000
v  -0.5000 0.4977 0.0000
v  0.0000 0.4977 0.5000
v  -0.5000 0.4977 0.5000
v  0.5000 0.4977 0.5000
v  0.0000 0.9977 0.5000
v  0.5000 0.4977 0.0000
v  0.5000 -0.0023 0.5000
v  -0.5000 -0.0023 0.5000
v  -0.5000 0.9977 0.0000
v  0.5000 0.9977 0.5000
v  0.5000 0.9977 0.0000
v  -0.5000 0.9977 0.5000
# 64 vertices

vn 0.0000 0.0000 -1.0000
vn 0.0000 -0.0000 1.0000
vn 1.0000 0.0000 -0.0000
vn 0.0000 1.0000 0.0000
vn -1.0000 0.0000 -0.0000
vn 0.0000 -0.7071 -0.7071
vn 0.7071 0.0000 -0.7071
vn 0.0000 0.7071 0.7071
vn 0.0000 -0.7071 0.7071
vn 0.7071 -0.0000 0.7071
vn 0.7071 0.7071 0.0000
vn 0.7071 -0.7071 -0.0000
vn -0.7071 0.7071 0.0000
vn -0.7071 -0.7071 -0.0000
vn -0.7071 0.0000 -0.7071
vn -0.7071 0.0000 0.7071
vn 0.0000 -1.0000 -0.0000
vn -0.7071 -0.0000 -0.7071
vn 0.0000 0.7071 -0.7071
vn -0.0000 0.7071 0.7071
vn 0.7071 0.7071 -0.0000
vn -0.7071 -0.0000 0.7071
vn 0.7071 -0.0000 -0.7071
vn 0.7071 0.0000 0.7071
# 24 vertex normals

vt 0.5367 1.3360 -0.0000
vt 0.0577 1.3360 -0.0000
vt 0.0577 1.4826 -0.0000
vt 0.5367 1.4826 -0.0000
vt 0.0577 1.6493 -0.0000
vt 0.2819 1.6493 -0.0000
vt 0.2819 1.5026 -0.0000
vt 0.0577 1.5026 -0.0000
vt 0.0577 1.3360 1.0000
vt 0.5367 1.3360 1.0000
vt 0.5367 1.4826 1.0000
vt 0.0577 1.4826 1.0000
vt 0.2819 1.5026 1.0000
vt 0.2819 1.6493 1.0000
vt 0.0577 1.6493 1.0000
vt 0.0577 1.5026 1.0000
vt 0.6263 0.6767 -0.5600
vt 0.3736 0.6767 -0.5600
vt 0.3736 0.8233 -0.5600
vt 0.6263 0.8233 -0.5600
vt 0.6263 0.9900 -0.5600
vt 0.6263 0.8433 -0.5600
vt 0.3736 0.8433 -0.5600
vt 0.3736 0.9900 -0.5600
vt 0.5146 0.6843 0.0000
vt 0.5146 0.8007 0.0000
vt 0.7283 0.8007 0.0000
vt 0.7283 0.6843 0.0000
vt 0.6263 0.8433 1.5600
vt 0.6263 0.9900 1.5600
vt 0.3736 0.9900 1.5600
vt 0.3736 0.8433 1.5600
vt 0.6263 0.8233 1.5600
vt 0.3736 0.8233 1.5600
vt 0.3736 0.6767 1.5600
vt 0.6263 0.6767 1.5600
vt 0.5367 1.5026 -0.0000
vt 0.3125 1.5026 -0.0000
vt 0.3125 1.6493 -0.0000
vt 0.5367 1.6493 -0.0000
vt 0.5367 1.5026 1.0000
vt 0.5367 1.6493 1.0000
vt 0.3125 1.6493 1.0000
vt 0.3125 1.5026 1.0000
vt 0.2717 0.6843 -0.0000
vt 0.2717 0.8007 -0.0000
vt 0.4854 0.8007 0.0000
vt 0.4854 0.6843 0.0000
vt 0.5520 1.3260 0.0536
vt 0.0424 1.3260 0.0536
vt 0.2972 1.4926 0.0536
vt 0.2972 1.6593 0.0536
vt 0.0424 1.4926 0.0536
vt 0.2972 1.4926 0.9464
vt 0.0424 1.4926 0.9464
vt 0.5520 1.4926 0.9464
vt 0.2972 1.6593 0.9464
vt 0.3563 0.8333 -0.5000
vt 0.6436 0.8333 -0.5000
vt 0.3563 0.6667 -0.5000
vt 0.6436 0.6667 -0.5000
vt 0.5000 0.6764 1.0000
vt 0.5000 0.8087 1.0000
vt 0.3563 0.8333 1.5000
vt 0.6436 0.8333 1.5000
vt 0.3563 0.6667 1.5000
vt 0.6436 0.6667 1.5000
vt 0.5520 1.4926 0.0536
vt 0.0424 1.3260 0.9464
vt 0.5520 1.3260 0.9464
vt 0.1347 0.1596 0.0000
vt 0.4242 0.1596 0.0000
vt 0.4242 0.0232 0.0000
vt 0.1347 0.0232 0.0000
vt 0.0271 1.3360 0.1071
vt 0.0271 1.4826 0.1071
vt 0.5673 1.4826 0.1071
vt 0.5673 1.3360 0.1071
vt 0.0271 1.5026 0.1071
vt 0.0271 1.6493 0.1071
vt 0.0424 1.6593 0.0536
vt 0.6608 0.6767 -0.4400
vt 0.6608 0.8233 -0.4400
vt 0.5146 0.8166 2.0000
vt 0.7283 0.8166 2.0000
vt 0.7429 0.8087 1.0000
vt 0.7429 0.6764 1.0000
vt 0.7575 0.6843 2.0000
vt 0.7575 0.8007 2.0000
vt 0.6436 1.0000 1.5000
vt 0.6608 0.9900 1.4400
vt 0.6608 0.8433 1.4400
vt 0.6608 0.8233 1.4400
vt 0.6608 0.6767 1.4400
vt 0.3125 1.6693 0.1071
vt 0.5367 1.6693 0.1071
vt 0.5520 1.6593 0.0536
vt 0.5673 1.5026 0.1071
vt 0.5673 1.6493 0.1071
vt 0.5520 1.6593 0.9464
vt 0.5673 1.6493 0.8929
vt 0.5673 1.5026 0.8929
vt 0.4854 0.6843 -0.0000
vt 0.4854 0.6684 2.0000
vt 0.2717 0.6684 2.0000
vt 0.2571 0.6764 1.0000
vt 0.2571 0.8087 1.0000
vt 0.2425 0.8007 2.0000
vt 0.2425 0.6843 2.0000
vt 0.2717 0.8166 2.0000
vt 0.4854 0.8166 2.0000
vt 0.4854 0.8007 -0.0000
# 112 texture coords

g Box003
usemtl Wall1
s 2
f 1/1/1 2/2/1 3/3/1 
f 3/3/1 4/4/1 1/1/1 
f 5/5/1 6/6/1 7/7/1 
f 7/7/1 8/8/1 5/5/1 
s 4
f 9/9/2 10/10/2 11/11/2 
f 11/11/2 12/12/2 9/9/2 
f 13/13/2 14/14/2 15/15/2 
f 15/15/2 16/16/2 13/13/2 
s 16
f 17/17/3 18/18/3 19/19/3 
f 19/19/3 20/20/3 17/17/3 
f 21/21/3 22/22/3 23/23/3 
f 23/23/3 24/24/3 21/21/3 
s 32
f 25/25/4 26/26/4 27/27/4 
f 27/27/4 28/28/4 25/25/4 
s 64
f 29/29/5 30/30/5 31/31/5 
f 31/31/5 32/32/5 29/29/5 
f 33/33/5 34/34/5 35/35/5 
f 35/35/5 36/36/5 33/33/5 
s 2
f 37/37/1 38/38/1 39/39/1 
f 39/39/1 40/40/1 37/37/1 
s 4
f 41/41/2 42/42/2 43/43/2 
f 43/43/2 44/44/2 41/41/2 
s 32
f 45/45/4 46/46/4 47/47/4 
f 47/47/4 48/48/4 45/45/4 
s off
f 1/1/6 49/49/6 50/50/6 
f 50/50/6 2/2/6 1/1/6 
f 51/51/7 7/7/7 6/6/7 
f 6/6/7 52/52/7 51/51/7 
f 51/51/6 53/53/6 8/8/6 
f 8/8/6 7/7/6 51/51/6 
f 54/54/8 55/55/8 12/12/8 
f 54/54/8 12/12/8 11/11/8 
f 54/54/8 11/11/8 56/56/8 
f 54/54/9 13/13/9 16/16/9 
f 16/16/9 55/55/9 54/54/9 
f 57/57/10 14/14/10 13/13/10 
f 13/13/10 54/54/10 57/57/10 
f 58/58/11 56/59/11 20/20/11 
f 20/20/11 19/19/11 58/58/11 
f 49/60/12 18/18/12 17/17/12 
f 17/17/12 59/61/12 49/60/12 
f 58/58/12 23/23/12 22/22/12 
f 22/22/12 56/59/12 58/58/12 
f 52/62/13 57/63/13 26/26/13 
f 26/26/13 25/25/13 52/62/13 
f 53/64/14 55/65/14 29/29/14 
f 29/29/14 32/32/14 53/64/14 
f 50/66/14 60/67/14 36/36/14 
f 36/36/14 35/35/14 50/66/14 
f 53/64/13 34/34/13 33/33/13 
f 33/33/13 55/65/13 53/64/13 
f 58/68/6 51/51/6 38/38/6 
f 38/38/6 37/37/6 58/68/6 
f 52/52/15 39/39/15 38/38/15 
f 38/38/15 51/51/15 52/52/15 
f 56/56/9 41/41/9 44/44/9 
f 44/44/9 54/54/9 56/56/9 
f 54/54/16 44/44/16 43/43/16 
f 43/43/16 57/57/16 54/54/16 
f 52/62/11 48/48/11 47/47/11 
f 47/47/11 57/63/11 52/62/11 
f 10/10/9 9/9/9 60/69/9 
f 60/69/9 59/70/9 10/10/9 
s 1
f 59/71/17 60/72/17 50/73/17 
f 50/73/17 49/74/17 59/71/17 
s off
f 50/50/15 35/75/15 34/76/15 
f 2/2/15 50/50/15 34/76/15 
f 3/3/15 2/2/15 34/76/15 
f 3/3/18 34/76/18 53/53/18 
f 3/3/19 53/53/19 51/51/19 
f 4/4/19 3/3/19 51/51/19 
f 4/4/19 51/51/19 58/68/19 
f 58/68/7 19/77/7 18/78/7 
f 4/4/7 58/68/7 18/78/7 
f 1/1/7 4/4/7 18/78/7 
f 1/1/7 18/78/7 49/49/7 
f 53/53/15 32/79/15 31/80/15 
f 8/8/15 53/53/15 31/80/15 
f 5/5/15 8/8/15 31/80/15 
f 5/5/18 31/80/18 61/81/18 
f 59/61/10 17/17/10 20/20/10 
f 10/82/10 59/61/10 20/20/10 
f 11/83/10 10/82/10 20/20/10 
f 11/83/10 20/20/10 56/59/10 
f 27/27/8 26/26/8 57/63/8 
f 27/27/8 57/63/8 43/84/8 
f 27/27/8 43/84/8 42/85/8 
f 27/27/20 42/85/20 62/86/20 
f 63/87/11 28/28/11 27/27/11 
f 24/88/11 63/87/11 27/27/11 
f 21/89/11 24/88/11 27/27/11 
f 21/89/21 27/27/21 62/86/21 
f 64/90/22 30/30/22 29/29/22 
f 15/91/22 64/90/22 29/29/22 
f 16/92/22 15/91/22 29/29/22 
f 16/92/16 29/29/16 55/65/16 
f 55/65/22 33/33/22 36/36/22 
f 12/93/22 55/65/22 36/36/22 
f 9/94/22 12/93/22 36/36/22 
f 9/94/16 36/36/16 60/67/16 
f 40/40/19 39/39/19 52/52/19 
f 40/40/19 52/52/19 25/95/19 
f 40/40/19 25/95/19 28/96/19 
f 40/40/19 28/96/19 63/97/19 
f 58/68/7 37/37/7 40/40/7 
f 23/98/7 58/68/7 40/40/7 
f 24/99/7 23/98/7 40/40/7 
f 24/99/23 40/40/23 63/97/23 
f 62/100/10 42/42/10 41/41/10 
f 21/101/10 62/100/10 41/41/10 
f 22/102/10 21/101/10 41/41/10 
f 22/102/24 41/41/24 56/56/24 
f 45/45/19 48/103/19 52/62/19 
f 45/45/19 52/62/19 6/104/19 
f 45/45/19 6/104/19 5/105/19 
f 45/45/19 5/105/19 61/106/19 
f 64/107/13 46/46/13 45/45/13 
f 30/108/13 64/107/13 45/45/13 
f 31/109/13 30/108/13 45/45/13 
f 31/109/13 45/45/13 61/106/13 
f 15/110/8 14/111/8 57/63/8 
f 15/110/20 57/63/20 47/112/20 
f 15/110/8 47/112/8 46/46/8 
f 15/110/8 46/46/8 64/107/8 
# 124 faces

