# 3ds Max Wavefront OBJ Exporter v0.97b - (c)2007 guruware
# File Created: 12.12.2014 13:35:12

mtllib Wall1_H0.3.mtl

#
# object Box002
#

v  -0.9800 0.4800 0.5200
v  -0.9800 0.0200 0.5200
v  -0.0200 0.0200 0.5200
v  -0.0200 0.4800 0.5200
v  -0.6851 0.5200 0.5200
v  -0.6851 0.9800 0.5200
v  -0.9800 0.9800 0.5200
v  -0.9800 0.5200 0.5200
v  -0.9800 0.4800 -0.0200
v  -0.0194 0.4800 -0.0200
v  -0.0194 0.0200 -0.0200
v  -0.9800 0.0200 -0.0200
v  -0.9800 0.9800 -0.0200
v  -0.6856 0.9800 -0.0200
v  -0.6860 0.5200 -0.0200
v  -0.9800 0.5200 -0.0200
v  1.0200 0.0200 0.0200
v  1.0200 0.4800 0.0200
v  1.0200 0.4800 0.4800
v  1.0200 0.0200 0.4800
v  1.0200 0.5200 0.0200
v  1.0200 0.9800 0.0200
v  1.0200 0.9800 0.4800
v  1.0200 0.5200 0.4800
v  0.9800 1.0200 0.0200
v  0.3472 1.0200 0.0200
v  0.3536 1.0200 0.4800
v  0.9800 1.0200 0.4800
v  -1.0200 0.9800 0.0200
v  -1.0200 0.5200 0.0200
v  -1.0200 0.5200 0.4800
v  -1.0200 0.9800 0.4800
v  -1.0200 0.4800 0.0200
v  -1.0200 0.0200 0.0200
v  -1.0200 0.0200 0.4800
v  -1.0200 0.4800 0.4800
v  0.9800 0.9800 0.5200
v  0.3538 0.9800 0.5200
v  0.3538 0.5200 0.5200
v  0.9800 0.5200 0.5200
v  -0.6451 0.9800 0.5200
v  -0.6451 0.5200 0.5200
v  0.3138 0.5200 0.5200
v  0.3138 0.9800 0.5200
v  0.0200 0.4800 0.5200
v  0.0200 0.0200 0.5200
v  0.9800 0.0200 0.5200
v  0.9800 0.4800 0.5200
v  0.9800 0.5200 -0.0200
v  0.3467 0.5200 -0.0200
v  0.3469 0.9800 -0.0200
v  0.9800 0.9800 -0.0200
v  -0.6456 0.9800 -0.0200
v  0.3069 0.9800 -0.0200
v  0.3067 0.5200 -0.0200
v  -0.6460 0.5200 -0.0200
v  0.0206 0.4800 -0.0200
v  0.9800 0.4800 -0.0200
v  0.9800 0.0200 -0.0200
v  0.0206 0.0200 -0.0200
v  0.3072 1.0200 0.0200
v  -0.6456 1.0200 0.0200
v  -0.6452 1.0200 0.4800
v  0.3136 1.0200 0.4800
v  -0.6856 1.0200 0.0200
v  -0.9800 1.0200 0.0200
v  -0.9800 1.0200 0.4800
v  -0.6852 1.0200 0.4800
v  0.0000 0.0000 0.5000
v  0.0000 0.5000 0.5000
v  -1.0000 0.5000 0.5000
v  -0.6651 0.5000 0.5000
v  -0.6651 1.0000 0.5000
v  -0.6660 0.5000 0.0000
v  0.0006 0.5000 0.0000
v  -1.0000 0.5000 0.0000
v  0.0006 0.0000 0.0000
v  0.0000 0.0000 0.0000
v  -1.0000 0.0000 0.0000
v  -0.6656 1.0000 0.0000
v  1.0000 0.0000 0.5000
v  1.0000 0.0000 0.0000
v  1.0000 0.5000 0.5000
v  1.0000 0.5000 0.0000
v  0.3338 1.0000 0.5000
v  0.3269 1.0000 0.0000
v  -1.0000 0.0000 0.5000
v  0.3338 0.5000 0.5000
v  0.3267 0.5000 0.0000
v  -1.0000 1.0000 0.5000
v  1.0000 1.0000 0.0000
v  1.0000 1.0000 0.5000
v  -1.0000 1.0000 0.0000
v  0.0300 -0.0300 0.4700
v  0.0300 -0.0300 0.0300
v  0.0006 -0.0300 0.0300
v  0.9700 -0.0300 0.4700
v  0.9700 -0.0300 0.0300
v  -0.0300 -0.0300 0.4700
v  -0.9700 -0.0300 0.4700
v  -0.9700 -0.0300 0.0300
v  -0.0300 -0.0300 0.0300
# 102 vertices

vn 0.0000 -0.0000 1.0000
vn 0.0000 0.0000 -1.0000
vn 1.0000 0.0000 -0.0000
vn 0.0000 1.0000 0.0000
vn 0.0000 1.0000 -0.0000
vn -1.0000 0.0000 -0.0000
vn -0.0000 1.0000 -0.0000
vn -0.0000 1.0000 0.0000
vn 0.7071 -0.0000 0.7071
vn 0.0000 -0.7071 0.7071
vn 0.0000 0.7071 -0.7071
vn 0.7071 -0.0000 -0.7071
vn 0.0000 -0.7071 -0.7071
vn 0.7071 -0.0006 -0.7071
vn 0.7071 -0.7071 -0.0000
vn 0.7071 0.7071 0.0000
vn -0.7070 0.7071 0.0098
vn -0.7071 -0.7071 -0.0000
vn -0.7071 0.7071 0.0000
vn -0.7071 -0.0000 0.7071
vn -0.7071 0.0000 0.7071
vn -0.7071 0.0002 -0.7071
vn 0.7071 -0.0002 -0.7071
vn -0.7071 0.0006 -0.7071
vn -0.7071 0.0000 -0.7071
vn -0.7071 0.7071 0.0006
vn 0.7070 0.7071 -0.0098
vn 0.7071 0.7071 -0.0006
vn 0.0000 0.7071 0.7071
vn -0.0000 0.7071 0.7071
vn 0.7071 0.0000 -0.7071
vn -0.7071 -0.0000 -0.7071
vn -0.0000 0.7071 -0.7071
vn 0.0000 -1.0000 -0.0000
# 34 vertex normals

vt 0.0196 0.8212 1.0000
vt 0.0196 0.6689 1.0000
vt 0.4902 0.6689 1.0000
vt 0.4902 0.8212 1.0000
vt 0.1641 0.8344 1.0000
vt 0.1641 0.9868 1.0000
vt 0.0196 0.9868 1.0000
vt 0.0196 0.8344 1.0000
vt 0.0196 0.8212 -0.0000
vt 0.4905 0.8212 -0.0000
vt 0.4905 0.6689 -0.0000
vt 0.0196 0.6689 -0.0000
vt 0.0196 0.9868 -0.0000
vt 0.1639 0.9868 -0.0000
vt 0.1637 0.8344 -0.0000
vt 0.0196 0.8344 -0.0000
vt 2.0390 0.1733 -1.5400
vt 2.0390 0.3267 -1.5400
vt 2.3711 0.3267 -1.5400
vt 2.3711 0.1733 -1.5400
vt 2.0390 0.3400 -1.5400
vt 2.0390 0.4933 -1.5400
vt 2.3711 0.4933 -1.5400
vt 2.3711 0.3400 -1.5400
vt 0.9900 0.9892 1.0000
vt 0.6736 0.9892 1.0000
vt 0.6768 0.8672 1.0000
vt 0.9900 0.8672 1.0000
vt 2.0390 0.4933 2.5400
vt 2.0390 0.3400 2.5400
vt 2.3711 0.3400 2.5400
vt 2.3711 0.4933 2.5400
vt 2.0390 0.3267 2.5400
vt 2.0390 0.1733 2.5400
vt 2.3711 0.1733 2.5400
vt 2.3711 0.3267 2.5400
vt 0.9804 0.9868 1.0000
vt 0.6734 0.9868 1.0000
vt 0.6734 0.8344 1.0000
vt 0.9804 0.8344 1.0000
vt 0.1838 0.9868 1.0000
vt 0.1838 0.8344 1.0000
vt 0.6538 0.8344 1.0000
vt 0.6538 0.9868 1.0000
vt 0.5098 0.8212 1.0000
vt 0.5098 0.6689 1.0000
vt 0.9804 0.6689 1.0000
vt 0.9804 0.8212 1.0000
vt 0.9804 0.8344 -0.0000
vt 0.6700 0.8344 -0.0000
vt 0.6700 0.9868 -0.0000
vt 0.9804 0.9868 -0.0000
vt 0.1835 0.9868 -0.0000
vt 0.6504 0.9868 -0.0000
vt 0.6504 0.8344 -0.0000
vt 0.1833 0.8344 -0.0000
vt 0.5101 0.8212 -0.0000
vt 0.9804 0.8212 -0.0000
vt 0.9804 0.6689 -0.0000
vt 0.5101 0.6689 -0.0000
vt 0.6536 0.9892 1.0000
vt 0.1772 0.9892 1.0000
vt 0.1774 0.8672 1.0000
vt 0.6568 0.8672 1.0000
vt 0.1572 0.9892 1.0000
vt 0.0100 0.9892 1.0000
vt 0.0100 0.8672 1.0000
vt 0.1574 0.8672 1.0000
vt 0.5000 0.6623 0.9630
vt 0.5000 0.8278 0.9630
vt 0.0098 0.8278 0.9630
vt 0.1740 0.8278 0.9630
vt 0.1740 0.9934 0.9630
vt 0.1735 0.8278 0.0370
vt 0.5003 0.8278 0.0370
vt 0.0098 0.8278 0.0370
vt 0.5003 0.6623 0.0370
vt 0.5000 0.6623 0.0370
vt 0.0098 0.6623 0.0370
vt 0.1737 0.9934 0.0370
vt 2.3855 0.1667 -1.5000
vt 2.0246 0.1667 -1.5000
vt 2.3855 0.3333 -1.5000
vt 2.0246 0.3333 -1.5000
vt 0.6669 0.8619 0.0000
vt 0.6634 0.9945 0.0000
vt 2.3855 0.3333 2.5000
vt 2.0246 0.3333 2.5000
vt 2.3855 0.1667 2.5000
vt 2.0246 0.1667 2.5000
vt 0.9902 0.8278 0.9630
vt 0.6636 0.8278 0.9630
vt 0.6636 0.9934 0.9630
vt 0.9902 0.6623 0.9630
vt 0.9902 0.8278 0.0370
vt 0.6602 0.8278 0.0370
vt 0.6602 0.9934 0.0370
vt 0.1674 0.8619 0.0000
vt 0.1672 0.9945 0.0000
vt 0.0098 0.6623 0.9630
vt 0.9902 0.6623 0.0370
vt 0.1641 1.0000 0.9259
vt 0.0196 1.0000 0.9259
vt 0.0098 0.9934 0.9630
vt 1.0000 0.6689 0.0741
vt 1.0000 0.8212 0.0741
vt 1.0000 0.8344 0.0741
vt 1.0000 0.9868 0.0741
vt 0.9902 0.9934 0.0370
vt 1.0000 0.8619 -0.0000
vt 1.0100 0.8672 -1.0000
vt 1.0100 0.9892 -1.0000
vt 1.0000 0.9945 -0.0000
vt 0.0000 0.8344 0.0741
vt 0.0000 0.9868 0.0741
vt 0.0098 0.9934 0.0370
vt 0.0000 0.9868 0.9259
vt 0.0000 0.8344 0.9259
vt 0.0000 0.6689 0.0741
vt 0.0000 0.8212 0.0741
vt 0.0000 0.8212 0.9259
vt 0.0000 0.6689 0.9259
vt 1.0000 0.8344 0.9259
vt 1.0000 0.9868 0.9259
vt 0.9902 0.9934 0.9630
vt 0.9804 1.0000 0.9259
vt 0.6733 1.0000 0.9259
vt 1.0000 0.6689 0.9259
vt 1.0000 0.8212 0.9259
vt 0.6702 1.0000 0.0741
vt 0.9804 1.0000 0.0741
vt 0.1836 1.0000 0.0741
vt 0.6506 1.0000 0.0741
vt 0.6537 1.0000 0.9259
vt 0.1837 1.0000 0.9259
vt 0.1639 1.0000 0.0741
vt 0.0196 1.0000 0.0741
vt 0.0000 0.8619 0.0000
vt -0.0100 0.8672 -1.0000
vt -0.0100 0.9892 -1.0000
vt -0.0000 0.9945 0.0000
vt 0.5150 -0.3146 0.0000
vt 0.5150 -0.1960 0.0000
vt 0.5003 -0.1960 0.0000
vt 0.9850 -0.3146 0.0000
vt 0.9850 -0.1960 0.0000
vt 0.4850 -0.3146 0.0000
vt 0.0150 -0.3146 0.0000
vt 0.0150 -0.1960 0.0000
vt 0.4850 -0.1960 0.0000
vt 1.0000 -0.3227 1.0000
vt 0.5000 -0.3227 1.0000
vt 0.5000 -0.1880 1.0000
vt 0.5003 -0.1880 1.0000
vt 1.0000 -0.1880 1.0000
vt 0.0000 -0.3227 1.0000
vt 0.0000 -0.1880 1.0000
# 157 texture coords

g Box002
usemtl Wall1
s 1
f 1/1/1 2/2/1 3/3/1 
f 3/3/1 4/4/1 1/1/1 
f 5/5/1 6/6/1 7/7/1 
f 7/7/1 8/8/1 5/5/1 
f 9/9/2 10/10/2 11/11/2 
f 11/11/2 12/12/2 9/9/2 
f 13/13/2 14/14/2 15/15/2 
f 15/15/2 16/16/2 13/13/2 
f 17/17/3 18/18/3 19/19/3 
f 19/19/3 20/20/3 17/17/3 
f 21/21/3 22/22/3 23/23/3 
f 23/23/3 24/24/3 21/21/3 
f 25/25/4 26/26/5 27/27/4 
f 27/27/4 28/28/4 25/25/4 
f 29/29/6 30/30/6 31/31/6 
f 31/31/6 32/32/6 29/29/6 
f 33/33/6 34/34/6 35/35/6 
f 35/35/6 36/36/6 33/33/6 
f 37/37/1 38/38/1 39/39/1 
f 39/39/1 40/40/1 37/37/1 
f 41/41/1 42/42/1 43/43/1 
f 43/43/1 44/44/1 41/41/1 
f 45/45/1 46/46/1 47/47/1 
f 47/47/1 48/48/1 45/45/1 
f 49/49/2 50/50/2 51/51/2 
f 51/51/2 52/52/2 49/49/2 
f 53/53/2 54/54/2 55/55/2 
f 55/55/2 56/56/2 53/53/2 
f 57/57/2 58/58/2 59/59/2 
f 59/59/2 60/60/2 57/57/2 
f 61/61/7 62/62/4 63/63/8 
f 63/63/8 64/64/7 61/61/7 
f 65/65/4 66/66/4 67/67/4 
f 67/67/4 68/68/4 65/65/4 
s 2
f 69/69/9 70/70/9 4/4/9 
f 4/4/9 3/3/9 69/69/9 
f 71/71/10 72/72/10 5/5/10 
f 5/5/10 8/8/10 71/71/10 
s 8
f 72/72/9 73/73/9 6/6/9 
f 6/6/9 5/5/9 72/72/9 
s 2
f 74/74/11 75/75/11 10/10/11 
f 74/74/11 10/10/11 9/9/11 
f 74/74/11 9/9/11 76/76/11 
s 4
f 75/75/12 77/77/12 11/11/12 
f 11/11/12 10/10/12 75/75/12 
s 16
f 11/11/13 77/77/13 78/78/13 
f 11/11/13 78/78/13 79/79/13 
f 11/11/13 79/79/13 12/12/13 
s 4
f 74/74/14 15/15/14 14/14/14 
f 14/14/14 80/80/14 74/74/14 
s 16
f 74/74/13 76/76/13 16/16/13 
f 16/16/13 15/15/13 74/74/13 
s 4
f 17/17/15 20/20/15 81/81/15 
f 81/81/15 82/82/15 17/17/15 
s 2
f 83/83/16 19/19/16 18/18/16 
f 18/18/16 84/84/16 83/83/16 
s 4
f 83/83/15 84/84/15 21/21/15 
f 21/21/15 24/24/15 83/83/15 
s 2
f 85/85/17 27/27/17 26/26/17 
f 26/26/17 86/86/17 85/85/17 
s 32
f 71/87/18 31/31/18 30/30/18 
f 30/30/18 76/88/18 71/87/18 
s 64
f 71/87/19 76/88/19 33/33/19 
f 33/33/19 36/36/19 71/87/19 
s 32
f 87/89/18 35/35/18 34/34/18 
f 34/34/18 79/90/18 87/89/18 
f 83/91/10 40/40/10 39/39/10 
f 39/39/10 88/92/10 83/91/10 
s 8
f 85/93/20 88/92/20 39/39/20 
f 39/39/20 38/38/20 85/93/20 
s 64
f 88/92/9 85/93/9 44/44/9 
f 44/44/9 43/43/9 88/92/9 
s 32
f 73/73/21 72/72/21 42/42/21 
f 42/42/21 41/41/21 73/73/21 
s 64
f 46/46/10 69/69/10 81/94/10 
f 81/94/10 47/47/10 46/46/10 
s 8
f 70/70/20 69/69/20 46/46/20 
f 46/46/20 45/45/20 70/70/20 
s 32
f 84/95/13 89/96/13 50/50/13 
f 50/50/13 49/49/13 84/95/13 
s 8
f 86/97/22 51/51/22 50/50/22 
f 50/50/22 89/96/22 86/97/22 
s 64
f 89/96/23 55/55/23 54/54/23 
f 54/54/23 86/97/23 89/96/23 
s 128
f 75/75/13 74/74/13 56/56/13 
f 75/75/13 56/56/13 55/55/13 
f 75/75/13 55/55/13 89/96/13 
s 8
f 80/80/24 53/53/24 56/56/24 
f 56/56/24 74/74/24 80/80/24 
s 256
f 89/96/11 84/95/11 58/58/11 
f 89/96/11 58/58/11 57/57/11 
f 89/96/11 57/57/11 75/75/11 
s 32
f 77/77/25 75/75/25 57/57/25 
f 57/57/25 60/60/25 77/77/25 
s 64
f 73/98/26 63/63/26 62/62/26 
f 62/62/26 80/99/26 73/98/26 
s 32
f 86/86/27 61/61/27 64/64/27 
f 64/64/27 85/85/27 86/86/27 
s 128
f 80/99/28 65/65/28 68/68/28 
f 68/68/28 73/98/28 80/99/28 
s 4
f 3/3/10 2/2/10 87/100/10 
f 87/100/10 69/69/10 3/3/10 
s 64
f 60/60/13 59/59/13 82/101/13 
f 82/101/13 77/77/13 60/60/13 
s 4
f 4/4/29 70/70/29 72/72/29 
f 1/1/29 4/4/29 72/72/29 
f 1/1/29 72/72/29 71/71/29 
s 2
f 7/7/30 6/6/29 73/73/29 
f 7/7/30 73/73/29 68/102/29 
f 7/7/30 68/102/29 67/103/30 
f 7/7/30 67/103/30 90/104/30 
s 8
f 82/101/31 59/59/31 58/58/12 
f 17/105/31 82/101/31 58/58/12 
f 18/106/12 17/105/31 58/58/12 
f 18/106/12 58/58/12 84/95/12 
s 16
f 84/95/31 49/49/31 52/52/12 
f 21/107/31 84/95/31 52/52/12 
f 22/108/12 21/107/31 52/52/12 
f 22/108/12 52/52/12 91/109/12 
s 2
f 25/25/16 28/28/16 92/110/16 
f 25/25/16 92/110/16 23/111/16 
f 25/25/16 23/111/16 22/112/16 
f 25/25/16 22/112/16 91/113/16 
s 8
f 76/76/25 30/114/25 29/115/32 
f 16/16/25 76/76/25 29/115/32 
f 13/13/32 16/16/25 29/115/32 
f 13/13/32 29/115/32 93/116/32 
f 8/8/20 7/7/20 90/104/20 
f 8/8/20 90/104/20 32/117/20 
f 8/8/20 32/117/20 31/118/20 
f 8/8/20 31/118/20 71/71/20 
s 4
f 79/79/25 34/119/25 33/120/32 
f 12/12/25 79/79/25 33/120/32 
f 9/9/32 12/12/25 33/120/32 
f 9/9/32 33/120/32 76/76/32 
s 16
f 2/2/20 1/1/20 71/71/20 
f 2/2/20 71/71/20 36/121/20 
f 2/2/20 36/121/20 35/122/20 
f 2/2/20 35/122/20 87/100/20 
f 24/123/9 23/124/9 92/125/9 
f 24/123/9 92/125/9 37/37/9 
f 24/123/9 37/37/9 40/40/9 
f 24/123/9 40/40/9 83/91/9 
s 4
f 28/126/29 27/127/29 85/93/29 
f 28/126/29 85/93/29 38/38/29 
f 28/126/29 38/38/29 37/37/29 
f 28/126/29 37/37/29 92/125/29 
s 16
f 42/42/10 72/72/10 70/70/10 
f 43/43/10 42/42/10 70/70/10 
f 43/43/10 70/70/10 88/92/10 
s 8
f 20/128/9 19/129/9 83/91/9 
f 20/128/9 83/91/9 48/48/9 
f 20/128/9 48/48/9 47/47/9 
f 20/128/9 47/47/9 81/94/9 
s 128
f 48/48/29 83/91/29 88/92/29 
f 45/45/29 48/48/29 88/92/29 
f 45/45/29 88/92/29 70/70/29 
s 4
f 52/52/33 51/51/11 86/97/11 
f 52/52/33 86/97/11 26/130/11 
f 52/52/33 26/130/11 25/131/33 
f 52/52/33 25/131/33 91/109/33 
s 16
f 62/132/11 61/133/33 86/97/33 
f 62/132/11 86/97/33 54/54/33 
f 62/132/11 54/54/33 53/53/11 
f 62/132/11 53/53/11 80/80/11 
f 41/41/30 44/44/30 85/93/30 
f 41/41/30 85/93/30 64/134/30 
f 41/41/30 64/134/30 63/135/30 
f 41/41/30 63/135/30 73/73/30 
s 2
f 80/80/33 14/14/11 13/13/11 
f 65/136/33 80/80/33 13/13/11 
f 66/137/11 65/136/33 13/13/11 
f 66/137/11 13/13/11 93/116/11 
s 4
f 90/138/19 67/67/19 66/66/19 
f 32/139/19 90/138/19 66/66/19 
f 29/140/19 32/139/19 66/66/19 
f 29/140/19 66/66/19 93/141/19 
s 1
f 94/142/34 95/143/4 96/144/4 
f 97/145/34 94/142/34 96/144/4 
f 97/145/34 96/144/4 98/146/34 
f 99/147/34 100/148/34 101/149/34 
f 101/149/34 102/150/34 99/147/34 
s off
f 81/151/10 69/152/10 94/142/10 
f 94/142/10 97/145/10 81/151/10 
f 69/152/18 78/153/18 95/143/18 
f 95/143/18 94/142/18 69/152/18 
f 78/153/13 77/154/13 96/144/13 
f 96/144/29 95/143/29 78/153/29 
f 77/154/13 82/155/13 98/146/13 
f 98/146/13 96/144/13 77/154/13 
f 82/155/15 81/151/15 97/145/15 
f 97/145/15 98/146/15 82/155/15 
f 69/152/10 87/156/10 100/148/10 
f 100/148/10 99/147/10 69/152/10 
f 87/156/18 79/157/18 101/149/18 
f 101/149/18 100/148/18 87/156/18 
f 79/157/13 78/153/13 102/150/13 
f 102/150/13 101/149/13 79/157/13 
f 78/153/15 69/152/15 99/147/15 
f 99/147/15 102/150/15 78/153/15 
# 200 faces

